<svg class="animated" id="freepik_stories-online-page" xmlns="http://www.w3.org/2000/svg" viewBox="0 0 500 500" version="1.1" xmlns:xlink="http://www.w3.org/1999/xlink" xmlns:svgjs="http://svgjs.com/svgjs"><style>svg#freepik_stories-online-page:not(.animated) .animable {opacity: 0;}svg#freepik_stories-online-page.animated #freepik--Webpage--inject-2 {animation: 1s 1 forwards cubic-bezier(.36,-0.01,.5,1.38) slideDown,1.5s Infinite  linear floating;animation-delay: 0s,1s;}svg#freepik_stories-online-page.animated #freepik--Character--inject-2 {animation: 1s 1 forwards cubic-bezier(.36,-0.01,.5,1.38) slideLeft,1.5s Infinite  linear wind;animation-delay: 0s,1s;}            @keyframes slideDown {                0% {                    opacity: 0;                    transform: translateY(-30px);                }                100% {                    opacity: 1;                    transform: translateY(0);                }            }                    @keyframes floating {                0% {                    opacity: 1;                    transform: translateY(0px);                }                50% {                    transform: translateY(-10px);                }                100% {                    opacity: 1;                    transform: translateY(0px);                }            }                    @keyframes slideLeft {                0% {                    opacity: 0;                    transform: translateX(-30px);                }                100% {                    opacity: 1;                    transform: translateX(0);                }            }                    @keyframes wind {                0% {                    transform: rotate( 0deg );                }                25% {                    transform: rotate( 1deg );                }                75% {                    transform: rotate( -1deg );                }            }        </style><g id="freepik--background-complete--inject-2" class="animable" style="transform-origin: 250px 228.23px;"><rect y="382.4" width="500" height="0.25" style="fill: rgb(235, 235, 235); transform-origin: 250px 382.525px;" id="elgk96kolctdq" class="animable"></rect><rect x="416.78" y="398.49" width="33.12" height="0.25" style="fill: rgb(235, 235, 235); transform-origin: 433.34px 398.615px;" id="elvf2358fmkh" class="animable"></rect><rect x="322.53" y="401.21" width="8.69" height="0.25" style="fill: rgb(235, 235, 235); transform-origin: 326.875px 401.335px;" id="elhaicwimdtxk" class="animable"></rect><rect x="396.59" y="389.21" width="19.19" height="0.25" style="fill: rgb(235, 235, 235); transform-origin: 406.185px 389.335px;" id="elcimbhbujr45" class="animable"></rect><rect x="52.46" y="390.89" width="43.19" height="0.25" style="fill: rgb(235, 235, 235); transform-origin: 74.055px 391.015px;" id="el1g3pe594ew5" class="animable"></rect><rect x="104.56" y="390.89" width="6.33" height="0.25" style="fill: rgb(235, 235, 235); transform-origin: 107.725px 391.015px;" id="eli00t74lupg" class="animable"></rect><rect x="131.47" y="395.11" width="93.68" height="0.25" style="fill: rgb(235, 235, 235); transform-origin: 178.31px 395.235px;" id="elxhd773dy2kl" class="animable"></rect><path d="M237,337.8H43.91a5.71,5.71,0,0,1-5.7-5.71V60.66A5.71,5.71,0,0,1,43.91,55H237a5.71,5.71,0,0,1,5.71,5.71V332.09A5.71,5.71,0,0,1,237,337.8ZM43.91,55.2a5.46,5.46,0,0,0-5.45,5.46V332.09a5.46,5.46,0,0,0,5.45,5.46H237a5.47,5.47,0,0,0,5.46-5.46V60.66A5.47,5.47,0,0,0,237,55.2Z" style="fill: rgb(235, 235, 235); transform-origin: 140.46px 196.4px;" id="elfecs4am3214" class="animable"></path><path d="M453.31,337.8H260.21a5.72,5.72,0,0,1-5.71-5.71V60.66A5.72,5.72,0,0,1,260.21,55h193.1A5.71,5.71,0,0,1,459,60.66V332.09A5.71,5.71,0,0,1,453.31,337.8ZM260.21,55.2a5.47,5.47,0,0,0-5.46,5.46V332.09a5.47,5.47,0,0,0,5.46,5.46h193.1a5.47,5.47,0,0,0,5.46-5.46V60.66a5.47,5.47,0,0,0-5.46-5.46Z" style="fill: rgb(235, 235, 235); transform-origin: 356.75px 196.4px;" id="el0czqw5c3szro" class="animable"></path><circle cx="382.29" cy="101.74" r="20.84" style="fill: rgb(224, 224, 224); transform-origin: 382.29px 101.74px;" id="eltg7mw2ooio" class="animable"></circle><circle cx="382.29" cy="101.74" r="17.52" style="fill: rgb(235, 235, 235); transform-origin: 382.29px 101.74px;" id="el902hm78mvi" class="animable"></circle><path d="M382.29,100.74h-.07a1,1,0,0,0-.75.44l-7.25,10.75a1,1,0,1,0,1.66,1.12l6.53-9.7,4.57,5a1,1,0,1,0,1.47-1.36L383,101.06A1,1,0,0,0,382.29,100.74Z" style="fill: rgb(224, 224, 224); transform-origin: 381.382px 107.116px;" id="el7fbl2xd46pv" class="animable"></path><rect x="38.4" y="158.86" width="176.29" height="223.23" style="fill: rgb(240, 240, 240); transform-origin: 126.545px 270.475px;" id="elah0jqqr72kl" class="animable"></rect><rect x="44.63" y="167" width="163.83" height="47.74" style="fill: rgb(224, 224, 224); transform-origin: 126.545px 190.87px;" id="eliy9h2sifncq" class="animable"></rect><rect x="44.63" y="174.72" width="9.31" height="40.01" style="fill: rgb(235, 235, 235); transform-origin: 49.285px 194.725px;" id="elc1aiob018g" class="animable"></rect><rect x="89.63" y="174.72" width="9.31" height="40.01" style="fill: rgb(235, 235, 235); transform-origin: 94.285px 194.725px;" id="els33mrrj5b5" class="animable"></rect><g id="ely1xk96kj2e9"><rect x="144.18" y="174.22" width="9.31" height="40.01" style="fill: rgb(235, 235, 235); transform-origin: 148.835px 194.225px; transform: rotate(-9.78deg);" class="animable" id="elemuk922dmo8"></rect></g><rect x="56.16" y="180" width="9.31" height="34.74" style="fill: rgb(235, 235, 235); transform-origin: 60.815px 197.37px;" id="elfv0i4digs4a" class="animable"></rect><rect x="77.55" y="180" width="9.31" height="34.74" style="fill: rgb(235, 235, 235); transform-origin: 82.205px 197.37px;" id="elhb7lre22pvi" class="animable"></rect><rect x="131.55" y="180" width="9.31" height="34.74" style="fill: rgb(235, 235, 235); transform-origin: 136.205px 197.37px;" id="el61kuv8qrt3t" class="animable"></rect><g id="el2lfzn5297mo"><rect x="105.73" y="179.4" width="9.31" height="34.74" style="fill: rgb(235, 235, 235); transform-origin: 110.385px 196.77px; transform: rotate(-12.53deg);" class="animable" id="elx1vuf77uhq"></rect></g><rect x="68.86" y="172.74" width="4.65" height="41.99" style="fill: rgb(235, 235, 235); transform-origin: 71.185px 193.735px;" id="elblkmntuz4ws" class="animable"></rect><rect x="124.22" y="172.74" width="4.65" height="41.99" style="fill: rgb(235, 235, 235); transform-origin: 126.545px 193.735px;" id="el4zfdjuoo6oa" class="animable"></rect><g id="eljh0ui36kjtj"><rect x="44.63" y="222.29" width="163.83" height="47.74" style="fill: rgb(224, 224, 224); transform-origin: 126.545px 246.16px; transform: rotate(180deg);" class="animable" id="elsfxy6mdedqs"></rect></g><g id="elvhg3319uueh"><rect x="199.15" y="230.02" width="9.31" height="40.01" style="fill: rgb(235, 235, 235); transform-origin: 203.805px 250.025px; transform: rotate(180deg);" class="animable" id="elvky5gm8b6xn"></rect></g><g id="eljvzqctkd7t"><rect x="154.15" y="230.02" width="9.31" height="40.01" style="fill: rgb(235, 235, 235); transform-origin: 158.805px 250.025px; transform: rotate(180deg);" class="animable" id="el175wbji13je"></rect></g><g id="elav3y4cqg77l"><rect x="99.6" y="229.52" width="9.31" height="40.01" style="fill: rgb(235, 235, 235); transform-origin: 104.255px 249.525px; transform: rotate(-170.22deg);" class="animable" id="elqff8dymph8"></rect></g><g id="elyksvek76f2o"><rect x="187.62" y="235.29" width="9.31" height="34.74" style="fill: rgb(235, 235, 235); transform-origin: 192.275px 252.66px; transform: rotate(180deg);" class="animable" id="el49m82ygltr4"></rect></g><g id="el74h9t7w185a"><rect x="166.23" y="235.29" width="9.31" height="34.74" style="fill: rgb(235, 235, 235); transform-origin: 170.885px 252.66px; transform: rotate(180deg);" class="animable" id="el3510cuhhfo6"></rect></g><g id="elbp3f8qel39l"><rect x="112.24" y="235.29" width="9.31" height="34.74" style="fill: rgb(235, 235, 235); transform-origin: 116.895px 252.66px; transform: rotate(180deg);" class="animable" id="elxe4syzlobti"></rect></g><g id="elexfu007hufs"><rect x="138.05" y="234.69" width="9.31" height="34.74" style="fill: rgb(235, 235, 235); transform-origin: 142.705px 252.06px; transform: rotate(-167.347deg);" class="animable" id="eluxnqw63l6ah"></rect></g><g id="elrqhvxf1qdr"><rect x="179.57" y="228.03" width="4.65" height="41.99" style="fill: rgb(235, 235, 235); transform-origin: 181.895px 249.025px; transform: rotate(180deg);" class="animable" id="eln03qdnek9kl"></rect></g><g id="el26dbois40m7"><rect x="124.22" y="228.03" width="4.65" height="41.99" style="fill: rgb(235, 235, 235); transform-origin: 126.545px 249.025px; transform: rotate(180deg);" class="animable" id="el317lbm2sec5"></rect></g><rect x="44.63" y="230.02" width="9.31" height="40.01" style="fill: rgb(235, 235, 235); transform-origin: 49.285px 250.025px;" id="elxylok4nz4zj" class="animable"></rect><rect x="56.16" y="235.29" width="9.31" height="34.74" style="fill: rgb(235, 235, 235); transform-origin: 60.815px 252.66px;" id="elj4kyta7ssah" class="animable"></rect><rect x="77.55" y="235.29" width="9.31" height="34.74" style="fill: rgb(235, 235, 235); transform-origin: 82.205px 252.66px;" id="el3mq2cwd5d8g" class="animable"></rect><rect x="68.86" y="228.03" width="4.65" height="41.99" style="fill: rgb(235, 235, 235); transform-origin: 71.185px 249.025px;" id="elwr6sy5lemzr" class="animable"></rect><rect x="44.63" y="277.58" width="163.83" height="47.74" style="fill: rgb(224, 224, 224); transform-origin: 126.545px 301.45px;" id="elv0q0s4cnjc" class="animable"></rect><rect x="138.66" y="285.31" width="9.31" height="40.01" style="fill: rgb(235, 235, 235); transform-origin: 143.315px 305.315px;" id="el5xace3v86e" class="animable"></rect><g id="elhwhjkmvwasr"><rect x="193.21" y="284.81" width="9.31" height="40.01" style="fill: rgb(235, 235, 235); transform-origin: 197.865px 304.815px; transform: rotate(-9.74364deg);" class="animable" id="elfwzvbjmqlk9"></rect></g><rect x="105.19" y="290.58" width="9.31" height="34.74" style="fill: rgb(235, 235, 235); transform-origin: 109.845px 307.95px;" id="eluhknv5xfz8" class="animable"></rect><rect x="126.59" y="290.58" width="9.31" height="34.74" style="fill: rgb(235, 235, 235); transform-origin: 131.245px 307.95px;" id="elw8sz17gm3ep" class="animable"></rect><rect x="180.58" y="290.58" width="9.31" height="34.74" style="fill: rgb(235, 235, 235); transform-origin: 185.235px 307.95px;" id="elp41zlf3wat" class="animable"></rect><g id="el8w9j0s4fpbm"><rect x="154.76" y="289.99" width="9.31" height="34.74" style="fill: rgb(235, 235, 235); transform-origin: 159.415px 307.36px; transform: rotate(-12.53deg);" class="animable" id="elz2fq9h6nbem"></rect></g><rect x="117.9" y="283.33" width="4.65" height="41.99" style="fill: rgb(235, 235, 235); transform-origin: 120.225px 304.325px;" id="elrap43kqn5j" class="animable"></rect><rect x="173.25" y="283.33" width="4.65" height="41.99" style="fill: rgb(235, 235, 235); transform-origin: 175.575px 304.325px;" id="elhszoghc00d" class="animable"></rect><g id="elqbvzk7wo1ya"><rect x="86.15" y="284.81" width="9.31" height="40.01" style="fill: rgb(235, 235, 235); transform-origin: 90.805px 304.815px; transform: rotate(-9.74364deg);" class="animable" id="eljoe8vuytt8"></rect></g><rect x="73.51" y="290.58" width="9.31" height="34.74" style="fill: rgb(235, 235, 235); transform-origin: 78.165px 307.95px;" id="el51k6z0sxvk" class="animable"></rect><g id="elp6mqa70w2w"><rect x="47.7" y="289.99" width="9.31" height="34.74" style="fill: rgb(235, 235, 235); transform-origin: 52.355px 307.36px; transform: rotate(-12.53deg);" class="animable" id="elp9qjxucmh"></rect></g><rect x="66.18" y="283.33" width="4.65" height="41.99" style="fill: rgb(235, 235, 235); transform-origin: 68.505px 304.325px;" id="elzfy1yyyhynq" class="animable"></rect><path d="M407.23,318.53s1.58-10.4-6-17.06-6.91-10.64-4.75-11.15,4.17,6.15,7.5,8c0,0,.11-9.5-3.28-13s-5.16-12.52-1.94-12.67,3.56,5.35,4.22,9.26,4.26,9.41,4.26,9.41.7-8.5,2.89-12-3.65-11.5-1.4-15,6.25,3.17,5.92,10.67-5.33,15.5-4.17,23.33c0,0,2.21-5.5,4.19-6s4-4.14,5.31-5.49,3,3.32,0,7.66-10.66,15.92-9.5,25.29Z" style="fill: rgb(230, 230, 230); transform-origin: 408.344px 291.571px;" id="elyzbb4a2gf8t" class="animable"></path><path d="M402.7,313.8l-2.49,15.58a7.92,7.92,0,0,0,7.83,9.17h2.65a7.92,7.92,0,0,0,7.82-9.17L416,313.8Z" style="fill: rgb(230, 230, 230); transform-origin: 409.36px 326.175px;" id="el8bm7t478tsr" class="animable"></path><rect x="407.23" y="340.34" width="5.78" height="42.66" style="fill: rgb(224, 224, 224); transform-origin: 410.12px 361.67px;" id="eld4whz93huh5" class="animable"></rect><rect x="386.72" y="340.34" width="5.78" height="42.66" style="fill: rgb(230, 230, 230); transform-origin: 389.61px 361.67px;" id="ell3gkpnhuu5s" class="animable"></rect><rect x="427.74" y="340.34" width="5.78" height="42.66" style="fill: rgb(230, 230, 230); transform-origin: 430.63px 361.67px;" id="el7vdioa5zm5s" class="animable"></rect><rect x="383.29" y="334.54" width="53.67" height="9.66" style="fill: rgb(230, 230, 230); transform-origin: 410.125px 339.37px;" id="el66ni4sgvray" class="animable"></rect><rect x="327.84" y="174.92" width="130.44" height="6.7" style="fill: rgb(224, 224, 224); transform-origin: 393.06px 178.27px;" id="el1b7wn01rpa" class="animable"></rect><rect x="333.85" y="150.22" width="5.75" height="24.7" style="fill: rgb(235, 235, 235); transform-origin: 336.725px 162.57px;" id="elwndq1o0chhl" class="animable"></rect><rect x="361.63" y="150.22" width="5.75" height="24.7" style="fill: rgb(235, 235, 235); transform-origin: 364.505px 162.57px;" id="elxhkm8cht2to" class="animable"></rect><g id="elmrbnykm20nh"><rect x="395.32" y="149.91" width="5.75" height="24.7" style="fill: rgb(235, 235, 235); transform-origin: 398.195px 162.26px; transform: rotate(-9.78deg);" class="animable" id="elz3eob6395v"></rect></g><rect x="340.97" y="153.47" width="5.75" height="21.45" style="fill: rgb(235, 235, 235); transform-origin: 343.845px 164.195px;" id="elz6yaa5rse9" class="animable"></rect><rect x="354.18" y="153.47" width="5.75" height="21.45" style="fill: rgb(235, 235, 235); transform-origin: 357.055px 164.195px;" id="el904eeenkani" class="animable"></rect><rect x="387.52" y="153.47" width="5.75" height="21.45" style="fill: rgb(235, 235, 235); transform-origin: 390.395px 164.195px;" id="elpmxnaerskkm" class="animable"></rect><g id="elkd9sq3fn5gk"><rect x="371.58" y="153.1" width="5.75" height="21.45" style="fill: rgb(235, 235, 235); transform-origin: 374.455px 163.825px; transform: rotate(-12.53deg);" class="animable" id="elzmlbjm143is"></rect></g><rect x="348.81" y="148.99" width="2.87" height="25.93" style="fill: rgb(235, 235, 235); transform-origin: 350.245px 161.955px;" id="elyjwd09i3ghg" class="animable"></rect><rect x="382.99" y="148.99" width="2.87" height="25.93" style="fill: rgb(235, 235, 235); transform-origin: 384.425px 161.955px;" id="elrjgh672hx2b" class="animable"></rect><rect x="417.77" y="155.37" width="28" height="19.33" style="fill: rgb(235, 235, 235); transform-origin: 431.77px 165.035px;" id="el8l30lsq8av6" class="animable"></rect><g id="elyba393kjdeb"><rect x="327.84" y="224.95" width="130.44" height="6.7" style="fill: rgb(224, 224, 224); transform-origin: 393.06px 228.3px; transform: rotate(180deg);" class="animable" id="eloje0epausg"></rect></g><g id="elybuix6k6a8g"><rect x="446.53" y="200.25" width="5.75" height="24.7" style="fill: rgb(235, 235, 235); transform-origin: 449.405px 212.6px; transform: rotate(180deg);" class="animable" id="el3n7v2b3miq"></rect></g><g id="el7ug1avl7o8"><rect x="418.74" y="200.25" width="5.75" height="24.7" style="fill: rgb(235, 235, 235); transform-origin: 421.615px 212.6px; transform: rotate(180deg);" class="animable" id="elbovkzj50xdl"></rect></g><g id="elrp85ohcsey"><rect x="385.06" y="199.94" width="5.75" height="24.7" style="fill: rgb(235, 235, 235); transform-origin: 387.935px 212.29px; transform: rotate(-170.22deg);" class="animable" id="elphipyqpj8xr"></rect></g><g id="elhqimg61lgr"><rect x="439.41" y="203.5" width="5.75" height="21.45" style="fill: rgb(235, 235, 235); transform-origin: 442.285px 214.225px; transform: rotate(180deg);" class="animable" id="el3e8thjvw1g"></rect></g><g id="eleryor270vv"><rect x="426.2" y="203.5" width="5.75" height="21.45" style="fill: rgb(235, 235, 235); transform-origin: 429.075px 214.225px; transform: rotate(180deg);" class="animable" id="elymcupfuow3"></rect></g><g id="elrv2ldreier"><rect x="392.86" y="203.5" width="5.75" height="21.45" style="fill: rgb(235, 235, 235); transform-origin: 395.735px 214.225px; transform: rotate(180deg);" class="animable" id="elibpezudxqjd"></rect></g><g id="elue5rnowyg0b"><rect x="408.8" y="203.14" width="5.75" height="21.45" style="fill: rgb(235, 235, 235); transform-origin: 411.675px 213.865px; transform: rotate(-167.47deg);" class="animable" id="el0oh2v2fy2cs"></rect></g><g id="eliv87rkskjfq"><rect x="434.44" y="199.02" width="2.87" height="25.93" style="fill: rgb(235, 235, 235); transform-origin: 435.875px 211.985px; transform: rotate(180deg);" class="animable" id="elfuhzphm8hjo"></rect></g><g id="el6c3licyqxwg"><rect x="400.26" y="199.02" width="2.87" height="25.93" style="fill: rgb(235, 235, 235); transform-origin: 401.695px 211.985px; transform: rotate(180deg);" class="animable" id="el27o1js74nn1"></rect></g><g id="elc3cdr4tbdp"><rect x="340.36" y="205.4" width="28" height="19.33" style="fill: rgb(235, 235, 235); transform-origin: 354.36px 215.065px; transform: rotate(180deg);" class="animable" id="elhu9ptpzsvaq"></rect></g></g><g id="freepik--Shadow--inject-2" class="animable" style="transform-origin: 250px 416.24px;"><ellipse id="freepik--path--inject-2" cx="250" cy="416.24" rx="193.89" ry="11.32" style="fill: rgb(245, 245, 245); transform-origin: 250px 416.24px;" class="animable"></ellipse></g><g id="freepik--Webpage--inject-2" class="animable" style="transform-origin: 256.335px 206.095px;"><polygon points="103.28 98.9 103.28 107.27 84.88 107.27 84.88 121.1 171.69 121.1 171.69 107.27 128.29 107.27 128.29 98.9 103.28 98.9" style="fill: #457CEE; transform-origin: 128.285px 110px;" id="el4aldnjzc98i" class="animable"></polygon><g id="elezgokpvhftq"><polygon points="103.28 98.9 103.28 107.27 84.88 107.27 84.88 121.1 171.69 121.1 171.69 107.27 128.29 107.27 128.29 98.9 103.28 98.9" style="fill: rgb(255, 255, 255); opacity: 0; transform-origin: 128.285px 110px;" class="animable" id="el9xr3s4eny3l"></polygon></g><rect x="84.68" y="107.31" width="343.31" height="12.21" style="fill: #457CEE; transform-origin: 256.335px 113.415px;" id="elumzq7lrltm" class="animable"></rect><g id="elhs5dvv30r2f"><rect x="84.68" y="107.31" width="343.31" height="12.21" style="fill: rgb(255, 255, 255); opacity: 0; transform-origin: 256.335px 113.415px;" class="animable" id="elpl8xq3zvs8i"></rect></g><rect x="84.68" y="119.52" width="343.31" height="193.77" style="fill: #457CEE; transform-origin: 256.335px 216.405px;" id="elx0rrir97gi" class="animable"></rect><g id="elmkufllhww29"><rect x="84.68" y="119.52" width="343.31" height="193.77" style="fill: rgb(255, 255, 255); opacity: 0.4; transform-origin: 256.335px 216.405px;" class="animable" id="el9hpfmb5v1xn"></rect></g><rect x="94.59" y="211.28" width="24.24" height="4.63" style="fill: rgb(255, 255, 255); transform-origin: 106.71px 213.595px;" id="eleo5bmve9ddq" class="animable"></rect><g id="elzrcxt8ysmri"><rect x="94.21" y="201.22" width="38.54" height="7.93" style="fill: rgb(255, 255, 255); opacity: 0.4; transform-origin: 113.48px 205.185px;" class="animable" id="el1ea9pb076k8"></rect></g><rect x="98.18" y="233.96" width="12.28" height="4.63" style="fill: rgb(255, 255, 255); transform-origin: 104.32px 236.275px;" id="eljoct1p1xk2t" class="animable"></rect><rect x="98.18" y="243.97" width="13.92" height="4.63" style="fill: rgb(255, 255, 255); transform-origin: 105.14px 246.285px;" id="elcwzmiw6g5db" class="animable"></rect><rect x="98.18" y="254.43" width="10.82" height="4.63" style="fill: rgb(255, 255, 255); transform-origin: 103.59px 256.745px;" id="eloip5d46ubdq" class="animable"></rect><rect x="98.18" y="264.9" width="13.92" height="4.63" style="fill: rgb(255, 255, 255); transform-origin: 105.14px 267.215px;" id="eln06c8hkgmhi" class="animable"></rect><rect x="98.18" y="275.36" width="13.92" height="4.63" style="fill: rgb(255, 255, 255); transform-origin: 105.14px 277.675px;" id="elrjrp23s34m" class="animable"></rect><rect x="98.18" y="285.83" width="13.92" height="4.63" style="fill: rgb(255, 255, 255); transform-origin: 105.14px 288.145px;" id="el1v1zp9vquna" class="animable"></rect><rect x="98.18" y="295.47" width="17.38" height="4.63" style="fill: rgb(255, 255, 255); transform-origin: 106.87px 297.785px;" id="el12bj65v8t0bb" class="animable"></rect><rect x="385.46" y="210.74" width="32.4" height="10.46" style="fill: rgb(255, 255, 255); transform-origin: 401.66px 215.97px;" id="elm24e3w8jmre" class="animable"></rect><rect x="319.94" y="240.48" width="97.91" height="13.38" style="fill: rgb(255, 255, 255); transform-origin: 368.895px 247.17px;" id="ely6u7mtyd7wl" class="animable"></rect><rect x="319.94" y="258.91" width="97.91" height="13.75" style="fill: rgb(255, 255, 255); transform-origin: 368.895px 265.785px;" id="elkcbp9cp0kgp" class="animable"></rect><rect x="319.94" y="277.16" width="97.91" height="14.97" style="fill: rgb(255, 255, 255); transform-origin: 368.895px 284.645px;" id="elwud7englvdq" class="animable"></rect><g id="elvp3uwoeqbpk"><rect x="156.51" y="139.54" width="263.17" height="60.79" style="fill: rgb(255, 255, 255); opacity: 0.7; transform-origin: 288.095px 169.935px;" class="animable" id="ellueuhgvc71"></rect></g><g id="el1lkkk1g6tn2"><rect x="156.51" y="123.89" width="32.18" height="12.38" style="fill: rgb(255, 255, 255); opacity: 0.4; transform-origin: 172.6px 130.08px;" class="animable" id="el4mjdru5aw07"></rect></g><g id="el2lve7jv76oc"><rect x="104.72" y="108.97" width="23.12" height="6.92" style="fill: rgb(255, 255, 255); opacity: 0.4; transform-origin: 116.28px 112.43px;" class="animable" id="el41ynadhpdww"></rect></g><rect x="188.69" y="123.89" width="230.98" height="12.38" style="fill: rgb(255, 255, 255); transform-origin: 304.18px 130.08px;" id="elv8iri11zt6g" class="animable"></rect><rect x="127.84" y="108.97" width="120.03" height="6.92" style="fill: rgb(255, 255, 255); transform-origin: 187.855px 112.43px;" id="el8wz2yukcc73" class="animable"></rect><g id="eln1x666nasg8"><rect x="160.33" y="209.71" width="27.3" height="8.37" style="fill: rgb(255, 255, 255); opacity: 0.5; transform-origin: 173.98px 213.895px;" class="animable" id="eloyr3fy4hi4i"></rect></g><rect x="187.63" y="209.71" width="34.94" height="8.37" style="fill: rgb(255, 255, 255); transform-origin: 205.1px 213.895px;" id="el5y7d1uwdgzr" class="animable"></rect><rect x="222.57" y="209.71" width="39.31" height="8.37" style="fill: rgb(255, 255, 255); transform-origin: 242.225px 213.895px;" id="elow3borhmu1m" class="animable"></rect><g id="ella2p03nm2xh"><rect x="317.48" y="229.3" width="20.94" height="8.37" style="fill: rgb(255, 255, 255); opacity: 0.3; transform-origin: 327.95px 233.485px;" class="animable" id="el0c3y1d17slk"></rect></g><path d="M168.65,212.21v3.73H168v-1.6H166v1.6h-.69v-3.73H166v1.54H168v-1.54Z" style="fill: rgb(255, 255, 255); transform-origin: 166.98px 214.075px;" id="el2osg4eyg0ns" class="animable"></path><path d="M170.09,215.79a1.42,1.42,0,0,1-.54-.52,1.49,1.49,0,0,1-.2-.76,1.45,1.45,0,0,1,.2-.75,1.33,1.33,0,0,1,.54-.51,1.54,1.54,0,0,1,.77-.19,1.57,1.57,0,0,1,.79.19,1.33,1.33,0,0,1,.54.51,1.44,1.44,0,0,1,.19.75,1.48,1.48,0,0,1-.19.76,1.42,1.42,0,0,1-.54.52,1.67,1.67,0,0,1-.79.18A1.65,1.65,0,0,1,170.09,215.79Zm1.38-.63a1,1,0,0,0,0-1.29.86.86,0,0,0-1.21,0,1,1,0,0,0,0,1.29.88.88,0,0,0,1.21,0Z" style="fill: rgb(255, 255, 255); transform-origin: 170.865px 214.515px;" id="elsajjoz2fgb" class="animable"></path><path d="M177.46,213.37a1.27,1.27,0,0,1,.32.94v1.63h-.67v-1.55a.83.83,0,0,0-.16-.56.59.59,0,0,0-.48-.19.7.7,0,0,0-.54.22.93.93,0,0,0-.2.63v1.45h-.66v-1.55a.83.83,0,0,0-.17-.56.58.58,0,0,0-.47-.19.67.67,0,0,0-.54.22.87.87,0,0,0-.2.63v1.45H173v-2.85h.64v.36a1.14,1.14,0,0,1,.39-.29,1.33,1.33,0,0,1,.54-.1,1.25,1.25,0,0,1,.56.12,1,1,0,0,1,.4.35,1.12,1.12,0,0,1,.45-.34,1.36,1.36,0,0,1,.61-.13A1.14,1.14,0,0,1,177.46,213.37Z" style="fill: rgb(255, 255, 255); transform-origin: 175.392px 214.498px;" id="el5egfu8jelmd" class="animable"></path><path d="M181.32,214.73h-2.23a.81.81,0,0,0,.3.5,1,1,0,0,0,.62.18,1,1,0,0,0,.77-.31l.36.41a1.26,1.26,0,0,1-.49.35,1.9,1.9,0,0,1-.66.11,1.8,1.8,0,0,1-.82-.18,1.38,1.38,0,0,1-.55-.52,1.49,1.49,0,0,1-.2-.76,1.54,1.54,0,0,1,.19-.74,1.26,1.26,0,0,1,.53-.52,1.44,1.44,0,0,1,.75-.19,1.54,1.54,0,0,1,.75.18,1.49,1.49,0,0,1,.51.52,1.59,1.59,0,0,1,.18.77A1.64,1.64,0,0,1,181.32,214.73Zm-2-.95a.8.8,0,0,0-.27.5h1.62a.84.84,0,0,0-.26-.5.88.88,0,0,0-1.09,0Z" style="fill: rgb(255, 255, 255); transform-origin: 179.875px 214.515px;" id="el7sdy0oqum7q" class="animable"></path><path d="M162.12,227.84h-1.74l-.34.8h-.67l1.57-3.48h.63l1.58,3.48h-.68Zm-.21-.51-.66-1.52-.65,1.52Z" style="fill: rgb(255, 255, 255); transform-origin: 161.26px 226.9px;" id="eld91ck75xlwc" class="animable"></path><path d="M165.7,226.13a1.27,1.27,0,0,1,.48.47,1.59,1.59,0,0,1,0,1.43,1.23,1.23,0,0,1-.48.48,1.48,1.48,0,0,1-.7.17,1.18,1.18,0,0,1-.5-.1.88.88,0,0,1-.38-.28v.34h-.59V225h.62v1.36a1,1,0,0,1,.38-.26A1.19,1.19,0,0,1,165,226,1.37,1.37,0,0,1,165.7,226.13Zm-.2,1.79a.89.89,0,0,0,.22-.61.87.87,0,0,0-.22-.6.81.81,0,0,0-1-.12.66.66,0,0,0-.28.29.86.86,0,0,0-.11.43.87.87,0,0,0,.11.44.66.66,0,0,0,.28.29.81.81,0,0,0,1-.12Z" style="fill: rgb(255, 255, 255); transform-origin: 164.94px 226.84px;" id="el1msome7vcyk" class="animable"></path><path d="M167.41,228.5a1.16,1.16,0,0,1-.5-.48,1.4,1.4,0,0,1,0-1.41,1.28,1.28,0,0,1,.5-.48,1.65,1.65,0,0,1,1.46,0,1.36,1.36,0,0,1,.5.48,1.4,1.4,0,0,1,0,1.41,1.22,1.22,0,0,1-.5.48,1.57,1.57,0,0,1-1.46,0Zm1.29-.58a.85.85,0,0,0,.23-.61.83.83,0,0,0-.23-.6.74.74,0,0,0-.56-.23.78.78,0,0,0-.57.23.82.82,0,0,0-.22.6.85.85,0,0,0,.22.61.78.78,0,0,0,.57.23A.74.74,0,0,0,168.7,227.92Z" style="fill: rgb(255, 255, 255); transform-origin: 168.14px 227.32px;" id="elel5h9ootmnm" class="animable"></path><path d="M172.72,226v2.65h-.59v-.34a.93.93,0,0,1-.37.28,1.12,1.12,0,0,1-.48.1,1.14,1.14,0,0,1-.84-.3,1.15,1.15,0,0,1-.31-.88V226h.62v1.43a.73.73,0,0,0,.17.53.57.57,0,0,0,.46.18.69.69,0,0,0,.53-.21.81.81,0,0,0,.19-.59V226Z" style="fill: rgb(255, 255, 255); transform-origin: 171.423px 227.346px;" id="el0vnbcd0tdue" class="animable"></path><path d="M175.14,228.5a.68.68,0,0,1-.27.13,1.14,1.14,0,0,1-.33.05,1,1,0,0,1-.68-.23.88.88,0,0,1-.23-.67V226.5h-.44V226h.44v-.61h.62V226H175v.49h-.71v1.27a.4.4,0,0,0,.09.29.36.36,0,0,0,.28.11.53.53,0,0,0,.34-.11Z" style="fill: rgb(255, 255, 255); transform-origin: 174.165px 227.035px;" id="el7lb3yvbna3k" class="animable"></path><path d="M322.16,231.19a1.4,1.4,0,0,1,.64.53,1.62,1.62,0,0,1,0,1.63,1.4,1.4,0,0,1-.64.53,2.4,2.4,0,0,1-1,.18h-1v1.25h-.8V231h1.77A2.4,2.4,0,0,1,322.16,231.19Zm-.21,2a.88.88,0,0,0,0-1.27,1.25,1.25,0,0,0-.8-.22h-.93v1.71h.93A1.31,1.31,0,0,0,322,233.17Z" style="fill: rgb(255, 255, 255); transform-origin: 321.19px 233.154px;" id="el3qa94bp35w" class="animable"></path><path d="M324.31,235.13a1.49,1.49,0,0,1-.62-.6,1.74,1.74,0,0,1,0-1.73,1.56,1.56,0,0,1,.62-.6,2,2,0,0,1,1.8,0,1.5,1.5,0,0,1,.62.6,1.74,1.74,0,0,1,0,1.73,1.44,1.44,0,0,1-.62.6,2,2,0,0,1-1.8,0Zm1.6-.72a1.16,1.16,0,0,0,0-1.49.94.94,0,0,0-.7-.28.93.93,0,0,0-.7.28,1.16,1.16,0,0,0,0,1.49.93.93,0,0,0,.7.28A.94.94,0,0,0,325.91,234.41Z" style="fill: rgb(255, 255, 255); transform-origin: 325.21px 233.665px;" id="el8rv8bqe6mqp" class="animable"></path><path d="M327.93,235.24a1.93,1.93,0,0,1-.61-.26l.3-.58a2,2,0,0,0,.53.23,2.15,2.15,0,0,0,.61.09q.69,0,.69-.36a.24.24,0,0,0-.18-.24,2.44,2.44,0,0,0-.56-.13,4.92,4.92,0,0,1-.66-.14,1,1,0,0,1-.44-.28.76.76,0,0,1-.19-.56.86.86,0,0,1,.39-.74,1.74,1.74,0,0,1,1.05-.28,3.14,3.14,0,0,1,.68.07,2,2,0,0,1,.55.21l-.29.58a1.85,1.85,0,0,0-.94-.24,1,1,0,0,0-.52.1.32.32,0,0,0-.17.27.26.26,0,0,0,.19.26,2.72,2.72,0,0,0,.58.14,4.89,4.89,0,0,1,.64.14,1.16,1.16,0,0,1,.44.27.77.77,0,0,1,.18.54.87.87,0,0,1-.4.74,1.85,1.85,0,0,1-1.09.28A2.88,2.88,0,0,1,327.93,235.24Z" style="fill: rgb(255, 255, 255); transform-origin: 328.761px 233.67px;" id="elkh5x9xwxnj" class="animable"></path><path d="M332.83,235.13a.85.85,0,0,1-.33.16,1.29,1.29,0,0,1-.4.06,1.21,1.21,0,0,1-.84-.28,1.09,1.09,0,0,1-.29-.83v-1.58h-.55v-.61H331v-.75h.76v.75h.88v.61h-.88v1.56a.51.51,0,0,0,.12.37.46.46,0,0,0,.34.13.69.69,0,0,0,.43-.14Z" style="fill: rgb(255, 255, 255); transform-origin: 331.625px 233.326px;" id="elch5rt0kbyvf" class="animable"></path><path d="M333.7,235.24a1.93,1.93,0,0,1-.61-.26l.3-.58a2,2,0,0,0,.53.23,2.15,2.15,0,0,0,.61.09q.69,0,.69-.36a.24.24,0,0,0-.18-.24,2.44,2.44,0,0,0-.56-.13,4.92,4.92,0,0,1-.66-.14,1,1,0,0,1-.44-.28.76.76,0,0,1-.19-.56.86.86,0,0,1,.39-.74,1.74,1.74,0,0,1,1.05-.28,3.14,3.14,0,0,1,.68.07,2,2,0,0,1,.55.21l-.29.58a1.85,1.85,0,0,0-.94-.24,1,1,0,0,0-.52.1.32.32,0,0,0-.17.27.26.26,0,0,0,.19.26,2.72,2.72,0,0,0,.58.14,4.89,4.89,0,0,1,.64.14,1.25,1.25,0,0,1,.44.27.77.77,0,0,1,.18.54.87.87,0,0,1-.4.74,1.85,1.85,0,0,1-1.09.28A2.88,2.88,0,0,1,333.7,235.24Z" style="fill: rgb(255, 255, 255); transform-origin: 334.531px 233.67px;" id="el8v9d5hegf6m" class="animable"></path><path d="M97.9,229.77v.88H93.68V225h4.11v.87H94.72v1.47h2.72v.86H94.72v1.55Z" style="fill: rgb(255, 255, 255); transform-origin: 95.79px 227.825px;" id="ellvfn7ncr85f" class="animable"></path><path d="M102.94,226.35l-1.84,4.3h-1l-1.84-4.3h1l1.34,3.19,1.37-3.19Z" style="fill: rgb(255, 255, 255); transform-origin: 100.6px 228.5px;" id="el98goy82zzi5" class="animable"></path><path d="M107.47,228.82H104.1a1.14,1.14,0,0,0,.46.75,1.49,1.49,0,0,0,.93.28,1.52,1.52,0,0,0,1.16-.47l.54.62a1.79,1.79,0,0,1-.73.53,2.83,2.83,0,0,1-1,.17,2.61,2.61,0,0,1-1.24-.28,2.11,2.11,0,0,1-.84-.78,2.3,2.3,0,0,1-.29-1.14,2.24,2.24,0,0,1,.29-1.13,2,2,0,0,1,.79-.79,2.4,2.4,0,0,1,1.14-.28,2.3,2.3,0,0,1,1.12.28,2.09,2.09,0,0,1,.78.78,2.42,2.42,0,0,1,.27,1.16C107.48,228.59,107.48,228.69,107.47,228.82Zm-3-1.43a1.23,1.23,0,0,0-.4.76h2.44a1.2,1.2,0,0,0-.4-.75,1.16,1.16,0,0,0-.82-.29A1.24,1.24,0,0,0,104.49,227.39Z" style="fill: rgb(255, 255, 255); transform-origin: 105.285px 228.5px;" id="elqepud8oowg" class="animable"></path><path d="M112.19,226.78a1.84,1.84,0,0,1,.49,1.41v2.46h-1v-2.34a1.18,1.18,0,0,0-.27-.84,1,1,0,0,0-.76-.29,1.15,1.15,0,0,0-.87.33,1.33,1.33,0,0,0-.33,1v2.18h-1v-4.3h1v.56a1.49,1.49,0,0,1,.62-.45,2.16,2.16,0,0,1,.86-.16A1.78,1.78,0,0,1,112.19,226.78Z" style="fill: rgb(255, 255, 255); transform-origin: 110.568px 228.514px;" id="el9drjnyauadt" class="animable"></path><path d="M116.54,230.41a1.09,1.09,0,0,1-.43.22,1.88,1.88,0,0,1-.53.07,1.53,1.53,0,0,1-1.1-.37,1.42,1.42,0,0,1-.38-1.07v-2.07h-.71v-.81h.71v-1h1v1h1.15v.81H115.1v2a.65.65,0,0,0,.16.48.57.57,0,0,0,.44.16.87.87,0,0,0,.56-.17Z" style="fill: rgb(255, 255, 255); transform-origin: 114.965px 228.042px;" id="elf3zqa790fcc" class="animable"></path><path d="M117.68,230.57a2.49,2.49,0,0,1-.8-.35l.39-.76a2.44,2.44,0,0,0,.69.31,3.21,3.21,0,0,0,.8.11c.6,0,.9-.16.9-.47a.32.32,0,0,0-.22-.32,4.88,4.88,0,0,0-.74-.16,7.41,7.41,0,0,1-.87-.19,1.34,1.34,0,0,1-.58-.37,1,1,0,0,1-.24-.72,1.14,1.14,0,0,1,.51-1,2.28,2.28,0,0,1,1.38-.37,4.5,4.5,0,0,1,.89.1,2.71,2.71,0,0,1,.72.27l-.39.77a2.31,2.31,0,0,0-1.23-.33,1.34,1.34,0,0,0-.67.14.4.4,0,0,0-.23.35.35.35,0,0,0,.25.34,3.57,3.57,0,0,0,.76.19,5.46,5.46,0,0,1,.84.18,1.32,1.32,0,0,1,.57.36,1,1,0,0,1,.24.71,1.12,1.12,0,0,1-.53,1,2.47,2.47,0,0,1-1.42.36A3.86,3.86,0,0,1,117.68,230.57Z" style="fill: rgb(255, 255, 255); transform-origin: 118.766px 228.5px;" id="el0zppua9tmjk" class="animable"></path><path d="M400.75,115.07v-1.65l-.82,1.37h-.21l-.82-1.35v1.63h-.44v-2.5h.38l1,1.66,1-1.66h.38v2.5Z" style="fill: rgb(255, 255, 255); transform-origin: 399.84px 113.82px;" id="el1r99xuy4o06" class="animable"></path><path d="M403.19,113.35a.76.76,0,0,1,.22.61v1.11H403v-.23a.48.48,0,0,1-.23.19,1,1,0,0,1-.37.07A.87.87,0,0,1,402,115a.56.56,0,0,1-.25-.2.5.5,0,0,1-.09-.29.52.52,0,0,1,.2-.42.94.94,0,0,1,.6-.15H403v0a.4.4,0,0,0-.12-.31.53.53,0,0,0-.36-.1.84.84,0,0,0-.31,0,.65.65,0,0,0-.26.14l-.18-.33a1.2,1.2,0,0,1,.36-.17,1.63,1.63,0,0,1,.45-.06A.89.89,0,0,1,403.19,113.35Zm-.41,1.35a.5.5,0,0,0,.19-.22v-.23h-.46c-.26,0-.39.09-.39.26a.22.22,0,0,0,.1.19.41.41,0,0,0,.27.07A.54.54,0,0,0,402.78,114.7Z" style="fill: rgb(255, 255, 255); transform-origin: 402.537px 114.105px;" id="el2k28l8ahfv2" class="animable"></path><path d="M405.64,113.36a.8.8,0,0,1,.22.62v1.09h-.44v-1a.54.54,0,0,0-.12-.38.46.46,0,0,0-.34-.13.53.53,0,0,0-.39.15.62.62,0,0,0-.14.43v1H404v-1.9h.43v.24a.84.84,0,0,1,.28-.2,1.12,1.12,0,0,1,.38-.06A.77.77,0,0,1,405.64,113.36Z" style="fill: rgb(255, 255, 255); transform-origin: 404.931px 114.177px;" id="el5jt3ws0vlxx" class="animable"></path><path d="M407.8,113.35a.76.76,0,0,1,.22.61v1.11h-.42v-.23a.48.48,0,0,1-.23.19,1,1,0,0,1-.37.07.84.84,0,0,1-.37-.08.56.56,0,0,1-.25-.2.5.5,0,0,1-.09-.29.54.54,0,0,1,.19-.42,1,1,0,0,1,.6-.15h.5v0a.4.4,0,0,0-.12-.31.53.53,0,0,0-.36-.1.84.84,0,0,0-.31,0,.77.77,0,0,0-.27.14l-.17-.33a1.2,1.2,0,0,1,.36-.17,1.63,1.63,0,0,1,.45-.06A.89.89,0,0,1,407.8,113.35Zm-.41,1.35a.5.5,0,0,0,.19-.22v-.23h-.46c-.26,0-.39.09-.39.26a.22.22,0,0,0,.1.19.41.41,0,0,0,.27.07A.54.54,0,0,0,407.39,114.7Z" style="fill: rgb(255, 255, 255); transform-origin: 407.157px 114.114px;" id="eltdsll5ikkwd" class="animable"></path><path d="M410.5,113.17v1.61a.9.9,0,0,1-1,1,1.81,1.81,0,0,1-.52-.07,1.07,1.07,0,0,1-.4-.2l.2-.34a.83.83,0,0,0,.31.17,1.32,1.32,0,0,0,.39.06.67.67,0,0,0,.46-.14.59.59,0,0,0,.15-.44v-.1a.67.67,0,0,1-.28.19,1,1,0,0,1-.36.07,1,1,0,0,1-.49-.12.86.86,0,0,1-.35-.33,1,1,0,0,1,0-1,.84.84,0,0,1,.35-.32,1,1,0,0,1,.49-.11,1.1,1.1,0,0,1,.37.06.78.78,0,0,1,.29.21v-.25Zm-.6,1.29a.52.52,0,0,0,.16-.4.5.5,0,0,0-.16-.39.6.6,0,0,0-.42-.15.56.56,0,0,0-.41.15.51.51,0,0,0-.17.39.53.53,0,0,0,.17.4.56.56,0,0,0,.41.15A.6.6,0,0,0,409.9,114.46Z" style="fill: rgb(255, 255, 255); transform-origin: 409.491px 114.443px;" id="elgv5fsg7uuv" class="animable"></path><path d="M412.87,114.26h-1.49a.52.52,0,0,0,.2.34.69.69,0,0,0,.41.12.7.7,0,0,0,.52-.21l.24.28a.86.86,0,0,1-.33.23,1.19,1.19,0,0,1-.44.08,1.09,1.09,0,0,1-.55-.13.89.89,0,0,1-.37-.35.91.91,0,0,1-.13-.5.93.93,0,0,1,.13-.5.84.84,0,0,1,.35-.35,1.06,1.06,0,0,1,.5-.12,1,1,0,0,1,.5.12.86.86,0,0,1,.34.34,1,1,0,0,1,.13.52S412.87,114.2,412.87,114.26Zm-1.32-.63a.52.52,0,0,0-.18.34h1.08a.58.58,0,0,0-.17-.34.57.57,0,0,0-.37-.13A.52.52,0,0,0,411.55,113.63Z" style="fill: rgb(255, 255, 255); transform-origin: 411.905px 114.125px;" id="elifps00ymgs" class="animable"></path><path d="M414.84,113H414v-.4h2.12v.4h-.83v2.1h-.46Z" style="fill: rgb(255, 255, 255); transform-origin: 415.06px 113.85px;" id="elqjlzp764wpi" class="animable"></path><path d="M417.71,113.35a.76.76,0,0,1,.22.61v1.11h-.42v-.23a.54.54,0,0,1-.23.19,1.06,1.06,0,0,1-.37.07.84.84,0,0,1-.37-.08.56.56,0,0,1-.25-.2.5.5,0,0,1-.09-.29.51.51,0,0,1,.19-.42,1,1,0,0,1,.6-.15h.49v0a.4.4,0,0,0-.12-.31.49.49,0,0,0-.35-.1.89.89,0,0,0-.32,0,.72.72,0,0,0-.26.14l-.17-.33a1.2,1.2,0,0,1,.36-.17,1.61,1.61,0,0,1,.44-.06A.92.92,0,0,1,417.71,113.35Zm-.41,1.35a.42.42,0,0,0,.18-.22v-.23H417c-.25,0-.38.09-.38.26a.22.22,0,0,0,.1.19.4.4,0,0,0,.26.07A.6.6,0,0,0,417.3,114.7Z" style="fill: rgb(255, 255, 255); transform-origin: 417.066px 114.114px;" id="el9a0b4mdrads" class="animable"></path><path d="M420.05,113.27a.82.82,0,0,1,.35.34,1.14,1.14,0,0,1,0,1,.91.91,0,0,1-.35.35,1,1,0,0,1-.49.12,1,1,0,0,1-.36-.07.68.68,0,0,1-.27-.2v.24h-.43v-2.64H419v1a.66.66,0,0,1,.27-.19.9.9,0,0,1,.34-.06A1,1,0,0,1,420.05,113.27Zm-.14,1.28a.66.66,0,0,0,0-.86.53.53,0,0,0-.4-.17.55.55,0,0,0-.29.08.53.53,0,0,0-.21.21.72.72,0,0,0,0,.62.53.53,0,0,0,.21.21.54.54,0,0,0,.29.07A.52.52,0,0,0,419.91,114.55Z" style="fill: rgb(255, 255, 255); transform-origin: 419.508px 113.745px;" id="elfna6hb7saj8" class="animable"></path><path d="M421.08,115a1.27,1.27,0,0,1-.35-.16l.17-.34a1,1,0,0,0,.31.14,1.1,1.1,0,0,0,.35,0c.27,0,.4-.07.4-.21a.15.15,0,0,0-.1-.14,1.79,1.79,0,0,0-.32-.07l-.39-.08a.53.53,0,0,1-.25-.17.4.4,0,0,1-.11-.32.5.5,0,0,1,.22-.43,1,1,0,0,1,.62-.16,1.72,1.72,0,0,1,.39,0,1.07,1.07,0,0,1,.32.12l-.17.34a1,1,0,0,0-.55-.14.78.78,0,0,0-.3,0,.2.2,0,0,0-.1.16.16.16,0,0,0,.11.15,2,2,0,0,0,.34.09,2.1,2.1,0,0,1,.37.08.58.58,0,0,1,.25.15.46.46,0,0,1,.11.32.51.51,0,0,1-.23.43,1.17,1.17,0,0,1-.63.16A1.76,1.76,0,0,1,421.08,115Z" style="fill: rgb(255, 255, 255); transform-origin: 421.565px 114.024px;" id="elk18js1hhyfa" class="animable"></path><g id="el3hoqikak6op"><rect x="94.56" y="123.82" width="58.33" height="58.33" style="fill: rgb(255, 255, 255); transform-origin: 123.725px 152.985px; transform: rotate(180deg);" class="animable" id="elzxluymwc3x"></rect></g><path d="M117.12,139.38l5,2,1.46,8.42c-2,11.07-3.93,21.84-6.07,23.48a21.15,21.15,0,0,1-13.74,8c1.49-3.08-1.06-10.31-1.06-15.65s5.85-7.31,6.56-11.6.41-9.21,1.36-12.06S117.12,139.38,117.12,139.38Z" style="fill: rgb(38, 50, 56); transform-origin: 113.145px 160.327px;" id="eleg5i3yai14b" class="animable"></path><path d="M122.16,141.37a5,5,0,0,1,2.09,4.24c-.11,2.84-.55,5.6-.3,7.33.3,2.05-1,5-1,5a16.42,16.42,0,0,0-.51-2.73s0,.74-1,1-8.95.47-10.74-1,2-13.44,4-14.14S122.16,141.37,122.16,141.37Z" style="fill: rgb(38, 50, 56); transform-origin: 117.243px 149.381px;" id="eleqpp6drm14h" class="animable"></path><path d="M148.16,155.3l-9.11,2.89,1,2.88,9-3.62s.79.37,1.1.49,1.62-.51,1.62-.51v-5.36Z" style="fill: rgb(228, 137, 123); transform-origin: 145.41px 156.57px;" id="elulpv6jskr2" class="animable"></path><path d="M146.29,159.41a100.14,100.14,0,0,1-23.18,5.31l-1.2.13c-.76.07-1.54.14-2.33.19l-.46-1-.67-1.4-.68-5.08s15.27,2.09,27.81-2Z" style="fill: #457CEE; transform-origin: 132.03px 160.3px;" id="eldf04t0xqy8" class="animable"></path><g id="eli3pc0oawgx"><path d="M146.29,159.41a100.14,100.14,0,0,1-23.18,5.31c-.4.05-2.74.27-3.53.32l-.46-1-.67-1.4-.68-5.08s15.27,2.09,27.81-2Z" style="opacity: 0.3; isolation: isolate; transform-origin: 132.03px 160.3px;" class="animable" id="el8eol70yau3y"></path></g><polygon points="143.93 155.07 145.63 160.9 146.89 159.98 145.55 155.06 143.93 155.07" style="fill: #457CEE; transform-origin: 145.41px 157.98px;" id="elpsi4auq79x" class="animable"></polygon><g id="el25t4do3tj57"><path d="M129.65,163.78c-.77.07-1.73.28-2.52.33l-.46-1,.46-3.85A6.62,6.62,0,0,1,129.65,163.78Z" style="opacity: 0.2; isolation: isolate; transform-origin: 128.16px 161.685px;" class="animable" id="elqaoqv8m7an"></path></g><path d="M103.44,160.16l.89-6.9s.94-.93.94-1.53-1.08-4-1.55-4.22-3,1-3,1.81a12,12,0,0,0,1.55,3.83l-1.81,8.11Z" style="fill: rgb(228, 137, 123); transform-origin: 102.865px 154.372px;" id="el1soehdpavdz" class="animable"></path><path d="M127.22,181.24H112.28a48.52,48.52,0,0,0-1.55-10.45c-.36-1.43-.81-3-1.38-4.88-.31-1-.65-2-1-3.19-.29-.86-.59-1.78-.93-2.75a43.89,43.89,0,0,1,6.21-1.5,47.13,47.13,0,0,1,6.71-.71c2.91,0,6.25.3,6.25.3s.48.12.78,3.2A148.36,148.36,0,0,1,127.22,181.24Z" style="fill: #457CEE; transform-origin: 117.528px 169.5px;" id="el7yoaabj4qky" class="animable"></path><g id="elsyu1xpfcm8j"><path d="M127.22,181.24H112.28a73.68,73.68,0,0,0-1.55-10.45c-.36-1.43-.81-3-1.38-4.88-.31-1-.65-2-1-3.19-.29-.86-.59-1.78-.93-2.75a43.89,43.89,0,0,1,6.21-1.5,47.13,47.13,0,0,1,6.71-.71c2.91,0,6.25.3,6.25.3s.48.12.78,3.2A148.36,148.36,0,0,1,127.22,181.24Z" style="opacity: 0.3; isolation: isolate; transform-origin: 117.528px 169.5px;" class="animable" id="elz4b4wslv58"></path></g><path d="M119.08,161.06c-3.69-.47-4.8-2-4.8-2,2.34-2.21.4-6,.4-6l4.44.82a13.21,13.21,0,0,0-.18,1.87c0,2.7,1.19,2.72,1.19,2.72C120.9,159.86,119.08,161.06,119.08,161.06Z" style="fill: rgb(228, 137, 123); transform-origin: 117.3px 157.06px;" id="el5t009ufol4c" class="animable"></path><g id="elkdk1cnedrrj"><path d="M119.12,153.81a13.21,13.21,0,0,0-.18,1.87,4.92,4.92,0,0,1-4.26-2.69Z" style="opacity: 0.2; isolation: isolate; transform-origin: 116.9px 154.335px;" class="animable" id="el1veusss2ik6"></path></g><g id="elkj2xd8g52u"><path d="M110.73,170.79c-.36-1.43-.81-3-1.38-4.88a4.84,4.84,0,0,1,.58-1A7,7,0,0,1,110.73,170.79Z" style="opacity: 0.2; isolation: isolate; transform-origin: 110.199px 167.85px;" class="animable" id="elyraqgliuc6s"></path></g><path d="M109.92,167.82C104.45,180.89,98.63,179,98,176c-.6-2.81,2-15.88,2-15.88h4.08l-1,8.79-.16,1.4s.12-.35.33-.92c.92-2.59,3.53-9.72,4.12-9.37C110.74,162.06,109.92,167.82,109.92,167.82Z" style="fill: #457CEE; transform-origin: 103.959px 169.095px;" id="el3jr6k8g72hr" class="animable"></path><g id="elabuy3xgg7oh"><path d="M109.92,167.82C104.45,180.89,98.63,179,98,176c-.6-2.81,2-15.88,2-15.88h4.08l-1,8.79-.16,1.4s.12-.35.33-.92c.92-2.59,3.53-9.72,4.12-9.37C110.74,162.06,109.92,167.82,109.92,167.82Z" style="opacity: 0.3; isolation: isolate; transform-origin: 103.959px 169.095px;" class="animable" id="eljj1w5ra7qhf"></path></g><g id="elg8efgnph6zd"><path d="M102.59,173.72a16.91,16.91,0,0,0,.39-3.37s.12-.35.33-.92A7,7,0,0,1,102.59,173.72Z" style="opacity: 0.2; isolation: isolate; transform-origin: 102.989px 171.575px;" class="animable" id="el0xlien93hvxc"></path></g><polygon points="100.1 158.95 99.5 160.62 104.56 160.62 104.27 159.21 100.1 158.95" style="fill: #457CEE; transform-origin: 102.03px 159.785px;" id="el7gh0n96r8b7" class="animable"></polygon><path d="M110.86,159.43s4.33,3.51,8.36,3.45,5.45-4.59,5.45-4.59A23,23,0,0,0,110.86,159.43Z" style="fill: rgb(228, 137, 123); transform-origin: 117.765px 160.299px;" id="el16wszhdhqyy" class="animable"></path><path d="M119.33,142.12c3.64.62,4.48,2.76,4.1,6.56-.46,4.74-2.07,7.89-6.45,6.11C111,152.38,113.29,141.09,119.33,142.12Z" style="fill: rgb(228, 137, 123); transform-origin: 118.498px 148.674px;" id="elb2lsccjnhm" class="animable"></path><path d="M121.12,148.07a7.66,7.66,0,0,0,.8,1.69,1,1,0,0,1-1,.25Z" style="fill: rgb(222, 87, 83); transform-origin: 121.42px 149.062px;" id="el18bs9752dl4" class="animable"></path><path d="M118.94,147.4c0,.3-.24.52-.44.49s-.33-.3-.28-.6.24-.52.44-.49S119,147.1,118.94,147.4Z" style="fill: rgb(38, 50, 56); transform-origin: 118.582px 147.345px;" id="el1prhxu9aj4r" class="animable"></path><path d="M118.57,146.8l.69-.16S118.86,147.14,118.57,146.8Z" style="fill: rgb(38, 50, 56); transform-origin: 118.915px 146.779px;" id="el1d5igiqk5yx" class="animable"></path><path d="M122.68,147.88c0,.3-.24.52-.44.49s-.33-.3-.28-.6.24-.52.44-.49S122.72,147.58,122.68,147.88Z" style="fill: rgb(38, 50, 56); transform-origin: 122.318px 147.825px;" id="el8kftwedmfqb" class="animable"></path><path d="M122.31,147.29l.69-.16S122.6,147.63,122.31,147.29Z" style="fill: rgb(38, 50, 56); transform-origin: 122.655px 147.269px;" id="elhdp0no958sk" class="animable"></path><path d="M117.66,145.32a.17.17,0,0,1-.12-.06.16.16,0,0,1,0-.22,2,2,0,0,1,1.82-.31.15.15,0,0,1,.1.19.15.15,0,0,1-.19.11,1.75,1.75,0,0,0-1.52.25A.21.21,0,0,1,117.66,145.32Z" style="fill: rgb(38, 50, 56); transform-origin: 118.482px 144.977px;" id="elz3c4ek2dbs8" class="animable"></path><path d="M123.4,145.88a.21.21,0,0,1-.11,0,1.57,1.57,0,0,0-1.26-.51A.16.16,0,0,1,122,145a1.9,1.9,0,0,1,1.54.59.16.16,0,0,1,0,.22A.18.18,0,0,1,123.4,145.88Z" style="fill: rgb(38, 50, 56); transform-origin: 122.707px 145.44px;" id="elspmoqx28pvh" class="animable"></path><path d="M114.31,147.57s2.21-2.7,2.35-5c0,0,7.71-1.71,6.81,5.66,0,0,1.82-6.37-4.41-7.59s-7,10.72-4.21,14C114.85,154.59,112.94,149.26,114.31,147.57Z" style="fill: rgb(38, 50, 56); transform-origin: 118.514px 147.596px;" id="elzr5m8cfjkr" class="animable"></path><path d="M114.77,148.44a1.61,1.61,0,0,0-1.47-1.75c-1.14-.07-2.07,2.15.63,3.18C114.32,150,114.62,149.67,114.77,148.44Z" style="fill: rgb(228, 137, 123); transform-origin: 113.475px 148.292px;" id="ele8z33im6c4j" class="animable"></path><path d="M115.89,141.7a10.9,10.9,0,0,0,3.29,2.4,35.6,35.6,0,0,0,5,1.34c-.68,3.34-.54,6.1,1.07,7.84-.59-1,.36-8.47.26-9.11-.24-1.52-1.75-2.5-3.5-3.69a7.9,7.9,0,0,0-4.34-1Z" style="fill: rgb(38, 50, 56); transform-origin: 120.704px 146.373px;" id="elasy83x24hh" class="animable"></path><path d="M114,142.5v4.28a5,5,0,0,0,.44,3.91,24.65,24.65,0,0,1,.37-5l1.43-2.82Z" style="fill: rgb(38, 50, 56); transform-origin: 115.014px 146.595px;" id="elxwm5rzukqyj" class="animable"></path><path d="M120.49,150.78a9.7,9.7,0,0,0-.38,1.36h-.25c-1.13,0-1.63-.45-1.85-.87a1.46,1.46,0,0,1-.15-.67,1.56,1.56,0,0,1,0-.4,5.15,5.15,0,0,0,2.19.56A3.49,3.49,0,0,0,120.49,150.78Z" style="fill: rgb(46, 53, 58); transform-origin: 119.169px 151.17px;" id="elpgjcxp7iz4" class="animable"></path><path d="M120.1,150.75l-.12.4a3.41,3.41,0,0,1-2.12-.56,1.56,1.56,0,0,1,0-.4A5.15,5.15,0,0,0,120.1,150.75Z" style="fill: rgb(255, 255, 255); transform-origin: 118.974px 150.674px;" id="el5rezvdtb7l2" class="animable"></path><path d="M119.86,152.13c-1.13,0-1.63-.45-1.85-.87a3.43,3.43,0,0,1,1.24.31A1.29,1.29,0,0,1,119.86,152.13Z" style="fill: rgb(222, 87, 83); transform-origin: 118.935px 151.695px;" id="elv9u2ink1q2e" class="animable"></path><rect x="159.54" y="153.28" width="143.3" height="4.7" style="fill: rgb(255, 255, 255); transform-origin: 231.19px 155.63px;" id="el1xke3049vk6" class="animable"></rect><g id="el8k0fm7918u9"><rect x="159.54" y="230.39" width="143.3" height="53.58" style="fill: rgb(255, 255, 255); opacity: 0.5; transform-origin: 231.19px 257.18px;" class="animable" id="el2mlcld2wdrk"></rect></g><rect x="159.54" y="161.7" width="183.73" height="5.34" style="fill: rgb(255, 255, 255); transform-origin: 251.405px 164.37px;" id="eln752nzain3b" class="animable"></rect><rect x="159.54" y="170.79" width="230.79" height="4.78" style="fill: rgb(255, 255, 255); transform-origin: 274.935px 173.18px;" id="el89cirochltc" class="animable"></rect><rect x="159.54" y="180.79" width="219.93" height="4.63" style="fill: rgb(255, 255, 255); transform-origin: 269.505px 183.105px;" id="elkd86e1x5s7" class="animable"></rect><rect x="159.54" y="189.77" width="247.09" height="4.51" style="fill: rgb(255, 255, 255); transform-origin: 283.085px 192.025px;" id="eluyglxk6l2rd" class="animable"></rect><path d="M165.25,233.15V236h-.43l-1.55-1.9V236h-.52v-2.81h.43l1.56,1.9v-1.9Z" style="fill: rgb(255, 255, 255); transform-origin: 164px 234.575px;" id="elu98ea99vrv" class="animable"></path><path d="M167.5,234a.87.87,0,0,1,.26.68V236h-.48v-.26a.61.61,0,0,1-.26.21,1,1,0,0,1-.41.08,1.08,1.08,0,0,1-.42-.08.59.59,0,0,1-.28-.23.56.56,0,0,1-.1-.33.58.58,0,0,1,.21-.47,1.13,1.13,0,0,1,.68-.17h.55v0a.42.42,0,0,0-.13-.34.58.58,0,0,0-.4-.12,1.13,1.13,0,0,0-.36.06.89.89,0,0,0-.29.15l-.2-.36a1.21,1.21,0,0,1,.41-.2,1.63,1.63,0,0,1,.5-.07A1,1,0,0,1,167.5,234Zm-.45,1.52a.5.5,0,0,0,.2-.25V235h-.51c-.29,0-.44.1-.44.29a.25.25,0,0,0,.11.21.45.45,0,0,0,.3.08A.74.74,0,0,0,167.05,235.54Z" style="fill: rgb(255, 255, 255); transform-origin: 166.786px 234.941px;" id="el3qowanxdbig" class="animable"></path><path d="M171.75,234a.93.93,0,0,1,.24.7V236h-.51V234.8a.67.67,0,0,0-.12-.43.46.46,0,0,0-.36-.14.48.48,0,0,0-.4.17.64.64,0,0,0-.16.47V236h-.5V234.8a.67.67,0,0,0-.12-.43.49.49,0,0,0-.36-.14.53.53,0,0,0-.41.16.69.69,0,0,0-.15.48V236h-.5v-2.14h.48v.27a.73.73,0,0,1,.3-.22,1,1,0,0,1,.4-.08,1,1,0,0,1,.43.09.69.69,0,0,1,.29.27.88.88,0,0,1,.34-.26,1,1,0,0,1,.47-.1A.86.86,0,0,1,171.75,234Z" style="fill: rgb(255, 255, 255); transform-origin: 170.196px 234.911px;" id="ellgy63w9fdpe" class="animable"></path><path d="M174.66,235.05H173a.58.58,0,0,0,.23.37.73.73,0,0,0,.47.14.76.76,0,0,0,.58-.23l.27.31a1,1,0,0,1-.37.26,1.26,1.26,0,0,1-.49.09,1.39,1.39,0,0,1-.63-.14,1.06,1.06,0,0,1-.56-1,1.2,1.2,0,0,1,.14-.57,1.15,1.15,0,0,1,.4-.39,1.2,1.2,0,0,1,.57-.14,1.13,1.13,0,0,1,.56.14,1,1,0,0,1,.39.39,1.21,1.21,0,0,1,.13.58Zm-1.49-.71a.57.57,0,0,0-.2.38h1.22a.57.57,0,0,0-.2-.38.64.64,0,0,0-.82,0Z" style="fill: rgb(255, 255, 255); transform-origin: 173.594px 234.87px;" id="eltonlci2b93f" class="animable"></path><path d="M203.24,235.92a.94.94,0,0,1-.38-.3l.3-.36a.67.67,0,0,0,.56.32c.29,0,.44-.17.44-.52v-1.45h-1v-.44h1.52V235a1,1,0,0,1-.24.74,1,1,0,0,1-.71.24A1.13,1.13,0,0,1,203.24,235.92Z" style="fill: rgb(255, 255, 255); transform-origin: 203.772px 234.578px;" id="el0iond987do8g" class="animable"></path><path d="M206.91,234a.91.91,0,0,1,.25.69V236h-.48v-.26a.56.56,0,0,1-.26.22,1,1,0,0,1-.41.07.93.93,0,0,1-.42-.08.58.58,0,0,1-.28-.23.6.6,0,0,1,.11-.79,1.06,1.06,0,0,1,.68-.18h.56v0a.45.45,0,0,0-.14-.35.58.58,0,0,0-.4-.12,1,1,0,0,0-.35.06.86.86,0,0,0-.3.16l-.2-.37a1.31,1.31,0,0,1,.41-.2,2.07,2.07,0,0,1,.5-.06A1.06,1.06,0,0,1,206.91,234Zm-.46,1.52a.47.47,0,0,0,.21-.25v-.25h-.52c-.29,0-.44.1-.44.29a.28.28,0,0,0,.11.22.51.51,0,0,0,.3.08A.64.64,0,0,0,206.45,235.56Z" style="fill: rgb(255, 255, 255); transform-origin: 206.186px 234.942px;" id="elhg26l7ajiy9" class="animable"></path><path d="M209.67,234.05a1,1,0,0,1,.24.71V236h-.5v-1.16a.57.57,0,0,0-.13-.42.49.49,0,0,0-.38-.15.6.6,0,0,0-.44.17.69.69,0,0,0-.16.48V236h-.5v-2.14h.48v.28a.79.79,0,0,1,.31-.23,1.18,1.18,0,0,1,.43-.07A.88.88,0,0,1,209.67,234.05Z" style="fill: rgb(255, 255, 255); transform-origin: 208.856px 234.918px;" id="ele5qnibnryjc" class="animable"></path><path d="M212.58,235.07H210.9a.56.56,0,0,0,.23.38.82.82,0,0,0,1-.1l.27.31a.73.73,0,0,1-.36.26,1.31,1.31,0,0,1-.5.09,1.23,1.23,0,0,1-.62-.14,1,1,0,0,1-.42-.39,1.1,1.1,0,0,1-.14-.57,1,1,0,0,1,.14-.56.92.92,0,0,1,.39-.39,1.1,1.1,0,0,1,.57-.14,1.13,1.13,0,0,1,.56.13,1,1,0,0,1,.39.39,1.21,1.21,0,0,1,.14.58A.86.86,0,0,1,212.58,235.07Zm-1.48-.71a.62.62,0,0,0-.21.38h1.22a.59.59,0,0,0-.2-.38.62.62,0,0,0-.41-.14A.56.56,0,0,0,211.1,234.36Z" style="fill: rgb(255, 255, 255); transform-origin: 211.469px 234.915px;" id="eljk1cay9dzo" class="animable"></path><path d="M214.47,235.93a1.35,1.35,0,0,1-.48-.24l.18-.41a1.34,1.34,0,0,0,.43.22,1.43,1.43,0,0,0,.5.09.86.86,0,0,0,.47-.1.3.3,0,0,0,.15-.26.28.28,0,0,0-.08-.2.61.61,0,0,0-.22-.13l-.37-.1a5,5,0,0,1-.52-.15.88.88,0,0,1-.34-.24.66.66,0,0,1-.14-.44.72.72,0,0,1,.13-.42.78.78,0,0,1,.38-.3,1.46,1.46,0,0,1,.62-.12,1.79,1.79,0,0,1,.51.07,1.3,1.3,0,0,1,.43.18l-.17.41a1.84,1.84,0,0,0-.38-.17,1.74,1.74,0,0,0-.39-.05.81.81,0,0,0-.46.1.32.32,0,0,0-.15.28.23.23,0,0,0,.09.19.5.5,0,0,0,.21.13l.37.1a2.41,2.41,0,0,1,.51.15.81.81,0,0,1,.34.24.59.59,0,0,1,.15.43.77.77,0,0,1-.13.42.83.83,0,0,1-.38.3,1.51,1.51,0,0,1-.63.11A2.18,2.18,0,0,1,214.47,235.93Z" style="fill: rgb(255, 255, 255); transform-origin: 215.116px 234.575px;" id="elh2sysmky4xp" class="animable"></path><path d="M220.06,234.05a1,1,0,0,1,.23.71V236h-.5v-1.16a.62.62,0,0,0-.12-.42.46.46,0,0,0-.36-.15.53.53,0,0,0-.41.17.69.69,0,0,0-.15.48V236h-.5v-1.16a.57.57,0,0,0-.13-.42.43.43,0,0,0-.35-.15.52.52,0,0,0-.41.17.69.69,0,0,0-.15.48V236h-.5v-2.14h.47v.27a.79.79,0,0,1,.31-.22,1,1,0,0,1,.4-.07.93.93,0,0,1,.42.09.7.7,0,0,1,.3.26.88.88,0,0,1,.34-.26,1.14,1.14,0,0,1,.46-.09A.88.88,0,0,1,220.06,234.05Z" style="fill: rgb(255, 255, 255); transform-origin: 218.501px 234.918px;" id="el7dfoy74uled" class="animable"></path><path d="M221,233.4a.29.29,0,0,1-.09-.22A.29.29,0,0,1,221,233a.34.34,0,0,1,.46,0,.25.25,0,0,1,.09.2.33.33,0,0,1-.55.23Zm0,.44h.5V236h-.5Z" style="fill: rgb(255, 255, 255); transform-origin: 221.23px 234.455px;" id="el1vfbeopvcjt" class="animable"></path><path d="M223.39,235.87a.65.65,0,0,1-.22.11,1.12,1.12,0,0,1-.27,0,.77.77,0,0,1-.54-.18.72.72,0,0,1-.2-.54v-1h-.35v-.4h.35v-.49h.51v.49h.57v.4h-.57v1a.36.36,0,0,0,.07.24.31.31,0,0,0,.22.08.46.46,0,0,0,.29-.09Z" style="fill: rgb(255, 255, 255); transform-origin: 222.6px 234.679px;" id="elkolnxscuxl" class="animable"></path><path d="M225.67,234.05a1,1,0,0,1,.24.71V236h-.5v-1.16a.57.57,0,0,0-.13-.42.49.49,0,0,0-.38-.15.6.6,0,0,0-.44.17.69.69,0,0,0-.16.48V236h-.5v-3h.5v1.09a.72.72,0,0,1,.31-.2,1.07,1.07,0,0,1,.41-.07A.89.89,0,0,1,225.67,234.05Z" style="fill: rgb(255, 255, 255); transform-origin: 224.856px 234.5px;" id="elmvbyja6u0x" class="animable"></path><path d="M165,245.26a.67.67,0,0,1,.14.45.64.64,0,0,1-.28.56,1.44,1.44,0,0,1-.82.2h-1.4v-2.81h1.32a1.31,1.31,0,0,1,.77.19.63.63,0,0,1,.27.54.76.76,0,0,1-.1.37.6.6,0,0,1-.27.25A.7.7,0,0,1,165,245.26Zm-1.84-1.19v.77h.74a.77.77,0,0,0,.42-.09.34.34,0,0,0,.15-.29.32.32,0,0,0-.15-.29.69.69,0,0,0-.42-.1Zm1.45,1.59c0-.28-.2-.41-.6-.41h-.85v.81H164C164.38,246.06,164.58,245.93,164.58,245.66Z" style="fill: rgb(255, 255, 255); transform-origin: 163.891px 245.065px;" id="elrojuogdb11" class="animable"></path><path d="M165.65,243.89a.27.27,0,0,1-.1-.22.25.25,0,0,1,.1-.21.29.29,0,0,1,.22-.09.34.34,0,0,1,.23.08.3.3,0,0,1,.1.21.27.27,0,0,1-.1.22.3.3,0,0,1-.23.09A.33.33,0,0,1,165.65,243.89Zm0,.44h.5v2.14h-.5Z" style="fill: rgb(255, 255, 255); transform-origin: 165.875px 244.92px;" id="elncaifj3x89" class="animable"></path><path d="M168,244.3v.48h-.11a.58.58,0,0,0-.46.17.68.68,0,0,0-.17.49v1h-.5v-2.14h.48v.31A.82.82,0,0,1,168,244.3Z" style="fill: rgb(255, 255, 255); transform-origin: 167.38px 245.366px;" id="elyn5i47rplm" class="animable"></path><path d="M169.82,246.35a.51.51,0,0,1-.22.11.75.75,0,0,1-.26,0,.74.74,0,0,1-.55-.19.69.69,0,0,1-.19-.53v-1h-.36v-.4h.36v-.49h.5v.49h.57v.4h-.57v1a.33.33,0,0,0,.08.24.27.27,0,0,0,.22.09.45.45,0,0,0,.28-.09Z" style="fill: rgb(255, 255, 255); transform-origin: 169.03px 245.161px;" id="eld8wsq3nn24w" class="animable"></path><path d="M172.1,244.54a1,1,0,0,1,.25.7v1.23h-.51v-1.16a.61.61,0,0,0-.13-.43.51.51,0,0,0-.38-.14.56.56,0,0,0-.43.17.65.65,0,0,0-.17.48v1.08h-.5v-3h.5v1.08a1.1,1.1,0,0,1,.31-.2,1.3,1.3,0,0,1,.41-.07A.88.88,0,0,1,172.1,244.54Z" style="fill: rgb(255, 255, 255); transform-origin: 171.29px 244.97px;" id="elng5144jwcje" class="animable"></path><path d="M175.1,243.49v3h-.48v-.28a.68.68,0,0,1-.3.23,1.11,1.11,0,0,1-.41.08,1.12,1.12,0,0,1-.55-.14A.92.92,0,0,1,173,246a1,1,0,0,1-.14-.57,1.11,1.11,0,0,1,.14-.58,1,1,0,0,1,.39-.38,1.12,1.12,0,0,1,.55-.14,1.23,1.23,0,0,1,.39.07.73.73,0,0,1,.3.22v-1.1Zm-.8,2.5a.76.76,0,0,0,.23-.24.78.78,0,0,0,.08-.35.75.75,0,0,0-.08-.35.59.59,0,0,0-.23-.24.62.62,0,0,0-.33-.08.57.57,0,0,0-.32.08.49.49,0,0,0-.23.24.65.65,0,0,0-.09.35.68.68,0,0,0,.09.35.59.59,0,0,0,.23.24.66.66,0,0,0,.32.08A.73.73,0,0,0,174.3,246Z" style="fill: rgb(255, 255, 255); transform-origin: 173.979px 245.005px;" id="eln74u7moy80m" class="animable"></path><path d="M177.31,244.53a.86.86,0,0,1,.25.68v1.26h-.47v-.26a.57.57,0,0,1-.27.21,1,1,0,0,1-.41.08,1.08,1.08,0,0,1-.42-.08.65.65,0,0,1-.28-.23.61.61,0,0,1,.12-.8,1.08,1.08,0,0,1,.67-.17h.56v0a.45.45,0,0,0-.14-.35.58.58,0,0,0-.4-.12,1,1,0,0,0-.35.06.84.84,0,0,0-.3.15l-.19-.36a1.16,1.16,0,0,1,.4-.2,1.68,1.68,0,0,1,.5-.07A1.06,1.06,0,0,1,177.31,244.53Zm-.46,1.52a.47.47,0,0,0,.21-.25v-.25h-.52c-.29,0-.44.1-.44.29a.25.25,0,0,0,.11.21.48.48,0,0,0,.3.08A.74.74,0,0,0,176.85,246.05Z" style="fill: rgb(255, 255, 255); transform-origin: 176.587px 245.413px;" id="elu1qudxl6vc" class="animable"></path><path d="M180.17,244.33l-1,2.31a1.11,1.11,0,0,1-.35.5.83.83,0,0,1-.48.14,1.19,1.19,0,0,1-.32-.05.93.93,0,0,1-.26-.15l.2-.37a.54.54,0,0,0,.18.11.43.43,0,0,0,.19,0,.31.31,0,0,0,.22-.07.54.54,0,0,0,.16-.23l0-.08-.94-2.15h.52l.68,1.58.68-1.58Z" style="fill: rgb(255, 255, 255); transform-origin: 178.965px 245.785px;" id="elldq8be5zmjc" class="animable"></path><path d="M204.94,246.47l-.55-.74-.56.74h-.55l.84-1.09-.8-1h.55l.53.7.53-.7h.54l-.8,1,.83,1.1Z" style="fill: rgb(255, 255, 255); transform-origin: 204.39px 245.43px;" id="elud55srt99p" class="animable"></path><path d="M207.24,246.47l-.55-.74-.55.74h-.56l.84-1.09-.8-1h.56l.52.7.53-.7h.54l-.8,1,.84,1.1Z" style="fill: rgb(255, 255, 255); transform-origin: 206.695px 245.43px;" id="el91v9qrui3b4" class="animable"></path><path d="M208,245.15h1.1v.41H208Z" style="fill: rgb(255, 255, 255); transform-origin: 208.55px 245.355px;" id="el0oejscgj9wb" class="animable"></path><path d="M210.89,246.47l-.55-.74-.56.74h-.55l.83-1.09-.8-1h.56l.53.7.53-.7h.54l-.81,1,.84,1.1Z" style="fill: rgb(255, 255, 255); transform-origin: 210.34px 245.43px;" id="el90uvuvjmj6" class="animable"></path><path d="M213.19,246.47l-.55-.74-.56.74h-.55l.84-1.09-.8-1h.55l.53.7.53-.7h.54l-.8,1,.84,1.1Z" style="fill: rgb(255, 255, 255); transform-origin: 212.645px 245.43px;" id="elz3i71si0k59" class="animable"></path><path d="M213.92,245.15H215v.41h-1.1Z" style="fill: rgb(255, 255, 255); transform-origin: 214.45px 245.355px;" id="eli4likcnv7ul" class="animable"></path><path d="M216.84,246.47l-.55-.74-.56.74h-.55l.83-1.09-.8-1h.56l.53.7.52-.7h.55l-.81,1,.84,1.1Z" style="fill: rgb(255, 255, 255); transform-origin: 216.29px 245.43px;" id="elh0o3k1exd9p" class="animable"></path><path d="M219.14,246.47l-.55-.74-.56.74h-.55l.83-1.09-.79-1h.55l.53.7.53-.7h.54l-.81,1,.84,1.1Z" style="fill: rgb(255, 255, 255); transform-origin: 218.59px 245.43px;" id="elcq5nmn4byc7" class="animable"></path><path d="M205.08,257.88l-.55-.74-.55.74h-.56l.84-1.09-.8-1.05H204l.52.7.53-.7h.54l-.8,1,.84,1.1Z" style="fill: rgb(255, 255, 255); transform-origin: 204.525px 256.81px;" id="elqoj4k537t4p" class="animable"></path><path d="M207.38,257.88l-.55-.74-.55.74h-.56l.84-1.09-.8-1.05h.56l.52.7.53-.7h.54l-.8,1,.84,1.1Z" style="fill: rgb(255, 255, 255); transform-origin: 206.835px 256.81px;" id="ellbqcpbyjyfe" class="animable"></path><path d="M209.69,257.88l-.55-.74-.55.74H208l.84-1.09-.8-1.05h.56l.52.7.53-.7h.54l-.8,1,.84,1.1Z" style="fill: rgb(255, 255, 255); transform-origin: 209.115px 256.81px;" id="el4p254lz7kaf" class="animable"></path><path d="M212,257.88l-.55-.74-.55.74h-.56l.84-1.09-.8-1.05h.56l.52.7.53-.7h.54l-.8,1,.84,1.1Z" style="fill: rgb(255, 255, 255); transform-origin: 211.455px 256.81px;" id="eljytlrp1xgs8" class="animable"></path><path d="M214.3,257.88l-.55-.74-.55.74h-.56l.84-1.09-.8-1.05h.56l.52.7.53-.7h.54l-.8,1,.84,1.1Z" style="fill: rgb(255, 255, 255); transform-origin: 213.755px 256.81px;" id="elnw0fialy8xg" class="animable"></path><path d="M216.61,257.88l-.55-.74-.55.74H215l.84-1.09-.8-1.05h.56l.52.7.53-.7h.54l-.8,1,.84,1.1Z" style="fill: rgb(255, 255, 255); transform-origin: 216.115px 256.81px;" id="elw70i447pm3b" class="animable"></path><path d="M205.08,267.82l-.55-.74-.55.74h-.56l.84-1.09-.8-1.05H204l.52.7.53-.7h.54l-.8,1.05.84,1.09Z" style="fill: rgb(255, 255, 255); transform-origin: 204.525px 266.75px;" id="el3g8ggq4egwu" class="animable"></path><path d="M207.38,267.82l-.55-.74-.55.74h-.56l.84-1.09-.8-1.05h.56l.52.7.53-.7h.54l-.8,1.05.84,1.09Z" style="fill: rgb(255, 255, 255); transform-origin: 206.835px 266.75px;" id="elokh1ivumb3i" class="animable"></path><path d="M209.69,267.82l-.55-.74-.55.74H208l.84-1.09-.8-1.05h.56l.52.7.53-.7h.54l-.8,1.05.84,1.09Z" style="fill: rgb(255, 255, 255); transform-origin: 209.115px 266.75px;" id="el1w5lyz988pn" class="animable"></path><path d="M212,267.82l-.55-.74-.55.74h-.56l.84-1.09-.8-1.05h.56l.52.7.53-.7h.54l-.8,1.05.84,1.09Z" style="fill: rgb(255, 255, 255); transform-origin: 211.455px 266.75px;" id="elj3bxbife41" class="animable"></path><path d="M214.3,267.82l-.55-.74-.55.74h-.56l.84-1.09-.8-1.05h.56l.52.7.53-.7h.54l-.8,1.05.84,1.09Z" style="fill: rgb(255, 255, 255); transform-origin: 213.755px 266.75px;" id="el3bccyxik2xn" class="animable"></path><path d="M216.61,267.82l-.55-.74-.55.74H215l.84-1.09-.8-1.05h.56l.52.7.53-.7h.54l-.8,1.05.84,1.09Z" style="fill: rgb(255, 255, 255); transform-origin: 216.115px 266.75px;" id="el8zn77tz7bjt" class="animable"></path><path d="M205.08,277.77l-.55-.75-.55.75h-.56l.84-1.09-.8-1.06H204l.52.7.53-.7h.54l-.8,1.05.84,1.1Z" style="fill: rgb(255, 255, 255); transform-origin: 204.525px 276.695px;" id="elhwxnsd3enh6" class="animable"></path><path d="M207.38,277.77l-.55-.75-.55.75h-.56l.84-1.09-.8-1.06h.56l.52.7.53-.7h.54l-.8,1.05.84,1.1Z" style="fill: rgb(255, 255, 255); transform-origin: 206.835px 276.695px;" id="elmubekx3bvh" class="animable"></path><path d="M209.69,277.77l-.55-.75-.55.75H208l.84-1.09-.8-1.06h.56l.52.7.53-.7h.54l-.8,1.05.84,1.1Z" style="fill: rgb(255, 255, 255); transform-origin: 209.115px 276.695px;" id="elzyskv3xsr9" class="animable"></path><path d="M212,277.77l-.55-.75-.55.75h-.56l.84-1.09-.8-1.06h.56l.52.7.53-.7h.54l-.8,1.05.84,1.1Z" style="fill: rgb(255, 255, 255); transform-origin: 211.455px 276.695px;" id="el2gdr1tfpmdy" class="animable"></path><path d="M214.3,277.77l-.55-.75-.55.75h-.56l.84-1.09-.8-1.06h.56l.52.7.53-.7h.54l-.8,1.05.84,1.1Z" style="fill: rgb(255, 255, 255); transform-origin: 213.755px 276.695px;" id="eltozxmsj3r0b" class="animable"></path><path d="M216.61,277.77l-.55-.75-.55.75H215l.84-1.09-.8-1.06h.56l.52.7.53-.7h.54l-.8,1.05.84,1.1Z" style="fill: rgb(255, 255, 255); transform-origin: 216.115px 276.695px;" id="els6epsqdzjq" class="animable"></path><path d="M165.27,255.29v2.81h-.52v-1.2H163.3v1.2h-.53v-2.81h.53v1.16h1.45v-1.16Z" style="fill: rgb(255, 255, 255); transform-origin: 164.02px 256.695px;" id="elmjee6x92vhq" class="animable"></path><path d="M166.36,258a1,1,0,0,1-.41-.39,1.16,1.16,0,0,1,0-1.14,1,1,0,0,1,.41-.38,1.22,1.22,0,0,1,1.17,0,1,1,0,0,1,.41.38,1.16,1.16,0,0,1,0,1.14,1,1,0,0,1-.41.39,1.15,1.15,0,0,1-.59.14A1.13,1.13,0,0,1,166.36,258Zm1-.47a.69.69,0,0,0,.18-.49.65.65,0,0,0-.18-.48.59.59,0,0,0-.46-.19.58.58,0,0,0-.45.19.65.65,0,0,0-.18.48.69.69,0,0,0,.18.49.61.61,0,0,0,.45.18A.62.62,0,0,0,167.4,257.52Z" style="fill: rgb(255, 255, 255); transform-origin: 166.945px 257.041px;" id="elsl7tkampoo" class="animable"></path><path d="M171.92,256.17a.94.94,0,0,1,.24.7v1.23h-.51v-1.16a.62.62,0,0,0-.12-.42.43.43,0,0,0-.36-.15.51.51,0,0,0-.4.17.65.65,0,0,0-.16.48v1.08h-.5v-1.16a.62.62,0,0,0-.12-.42.45.45,0,0,0-.36-.15.53.53,0,0,0-.41.17.69.69,0,0,0-.15.48v1.08h-.5V256h.48v.27a.84.84,0,0,1,.3-.22,1,1,0,0,1,.4-.08,1,1,0,0,1,.43.09.75.75,0,0,1,.29.27.92.92,0,0,1,.35-.26,1.11,1.11,0,0,1,.46-.1A.86.86,0,0,1,171.92,256.17Z" style="fill: rgb(255, 255, 255); transform-origin: 170.366px 257.033px;" id="eloefcz5cdza" class="animable"></path><path d="M174.83,257.19h-1.69a.58.58,0,0,0,.24.38.74.74,0,0,0,.46.14.75.75,0,0,0,.58-.24l.27.31a.93.93,0,0,1-.36.26,1.35,1.35,0,0,1-.5.09,1.21,1.21,0,0,1-.62-.14,1,1,0,0,1-.42-.39,1.1,1.1,0,0,1-.15-.57,1,1,0,0,1,.15-.56.92.92,0,0,1,.39-.39,1.1,1.1,0,0,1,.57-.15,1.13,1.13,0,0,1,.56.14,1.12,1.12,0,0,1,.39.39,1.21,1.21,0,0,1,.14.58S174.83,257.13,174.83,257.19Zm-1.49-.71a.57.57,0,0,0-.2.38h1.22a.59.59,0,0,0-.2-.38.67.67,0,0,0-.82,0Z" style="fill: rgb(255, 255, 255); transform-origin: 173.74px 257.031px;" id="el7m7fa0l5228" class="animable"></path><path d="M176.61,258a.65.65,0,0,1-.22.11,1.09,1.09,0,0,1-.26,0,.78.78,0,0,1-.55-.18.73.73,0,0,1-.19-.54v-1H175V256h.36v-.49h.5V256h.57v.41h-.57v1a.36.36,0,0,0,.07.24.34.34,0,0,0,.23.08.45.45,0,0,0,.28-.09Z" style="fill: rgb(255, 255, 255); transform-origin: 175.805px 256.814px;" id="el6royjpj25e4" class="animable"></path><path d="M177.33,258a1,1,0,0,1-.41-.39,1.16,1.16,0,0,1,0-1.14,1,1,0,0,1,.41-.38,1.22,1.22,0,0,1,1.17,0,1,1,0,0,1,.41.38,1.16,1.16,0,0,1,0,1.14,1,1,0,0,1-.41.39,1.15,1.15,0,0,1-.59.14A1.13,1.13,0,0,1,177.33,258Zm1-.47a.69.69,0,0,0,.18-.49.65.65,0,0,0-.18-.48.59.59,0,0,0-.46-.19.58.58,0,0,0-.45.19.65.65,0,0,0-.18.48.69.69,0,0,0,.18.49.61.61,0,0,0,.45.18A.62.62,0,0,0,178.37,257.52Z" style="fill: rgb(255, 255, 255); transform-origin: 177.915px 257.041px;" id="el0ohhe63yyag" class="animable"></path><path d="M182.83,256l-.8,2.14h-.48l-.55-1.47-.56,1.47H180l-.78-2.14h.47l.57,1.58.59-1.58h.42l.58,1.59.58-1.59Z" style="fill: rgb(255, 255, 255); transform-origin: 181.025px 257.07px;" id="el6c6cjviaoe5" class="animable"></path><path d="M185,256.17a.94.94,0,0,1,.24.7v1.23h-.5v-1.16a.57.57,0,0,0-.13-.42.49.49,0,0,0-.38-.15.6.6,0,0,0-.44.17.69.69,0,0,0-.16.48v1.08h-.5V256h.48v.28A.79.79,0,0,1,184,256a1.18,1.18,0,0,1,.43-.08A.88.88,0,0,1,185,256.17Z" style="fill: rgb(255, 255, 255); transform-origin: 184.186px 257.01px;" id="el7rs0s7vnc9b" class="animable"></path><path d="M98.75,203.55h.67v3.61h-.67Z" style="fill: rgb(255, 255, 255); transform-origin: 99.085px 205.355px;" id="elwosnjmm2pkk" class="animable"></path><path d="M102.72,204.68a1.19,1.19,0,0,1,.32.9v1.58h-.65v-1.5a.73.73,0,0,0-.17-.54.62.62,0,0,0-.48-.18.75.75,0,0,0-.56.21.85.85,0,0,0-.21.62v1.39h-.64v-2.75h.61v.35a1.18,1.18,0,0,1,.4-.29,1.59,1.59,0,0,1,.55-.09A1.14,1.14,0,0,1,102.72,204.68Z" style="fill: rgb(255, 255, 255); transform-origin: 101.687px 205.769px;" id="elhcc957a2fnt" class="animable"></path><path d="M104.57,204.26v.17h.75v.51h-.73v2.22h-.65v-2.22h-.45v-.51h.45v-.18a.94.94,0,0,1,.26-.69,1,1,0,0,1,.73-.26,1,1,0,0,1,.58.15l-.18.48a.66.66,0,0,0-.36-.11C104.7,203.82,104.57,204,104.57,204.26Z" style="fill: rgb(255, 255, 255); transform-origin: 104.5px 205.229px;" id="elm90qonhk3s" class="animable"></path><path d="M106.2,207a1.34,1.34,0,0,1-.53-.5,1.46,1.46,0,0,1-.18-.73,1.43,1.43,0,0,1,.18-.72,1.28,1.28,0,0,1,.53-.5,1.65,1.65,0,0,1,1.5,0,1.28,1.28,0,0,1,.53.5,1.43,1.43,0,0,1,.18.72,1.46,1.46,0,0,1-.18.73,1.34,1.34,0,0,1-.53.5,1.65,1.65,0,0,1-1.5,0Zm1.33-.61a.81.81,0,0,0,.24-.62.83.83,0,0,0-.24-.62.77.77,0,0,0-.58-.24.79.79,0,0,0-.59.24.86.86,0,0,0-.23.62.85.85,0,0,0,.23.62.79.79,0,0,0,.59.24A.77.77,0,0,0,107.53,206.4Z" style="fill: rgb(255, 255, 255); transform-origin: 106.95px 205.775px;" id="elxksn51grelo" class="animable"></path><path d="M110.62,204.38V205l-.15,0a.78.78,0,0,0-.58.22.89.89,0,0,0-.21.63v1.34H109v-2.75h.61v.4A1.08,1.08,0,0,1,110.62,204.38Z" style="fill: rgb(255, 255, 255); transform-origin: 109.81px 205.782px;" id="el4lqbpsyxpj9" class="animable"></path><path d="M115.46,204.68a1.22,1.22,0,0,1,.3.9v1.58h-.64v-1.5a.77.77,0,0,0-.16-.54.59.59,0,0,0-.46-.18.69.69,0,0,0-.52.21.88.88,0,0,0-.19.61v1.4h-.65v-1.5a.77.77,0,0,0-.16-.54.55.55,0,0,0-.45-.18.69.69,0,0,0-.53.21.91.91,0,0,0-.19.61v1.4h-.64v-2.75h.61v.35a1,1,0,0,1,.39-.29,1.36,1.36,0,0,1,.51-.09,1.35,1.35,0,0,1,.55.11,1,1,0,0,1,.38.34,1.14,1.14,0,0,1,.44-.33,1.38,1.38,0,0,1,.59-.12A1.12,1.12,0,0,1,115.46,204.68Z" style="fill: rgb(255, 255, 255); transform-origin: 113.467px 205.769px;" id="el6bmcp38a7rt" class="animable"></path><path d="M118.57,204.67a1.12,1.12,0,0,1,.32.87v1.62h-.61v-.34a.79.79,0,0,1-.34.28,1.35,1.35,0,0,1-.52.09,1.27,1.27,0,0,1-.54-.1.77.77,0,0,1-.36-.3.68.68,0,0,1-.13-.42.72.72,0,0,1,.28-.6,1.34,1.34,0,0,1,.86-.22h.71v0a.54.54,0,0,0-.17-.44.69.69,0,0,0-.51-.16,1.83,1.83,0,0,0-.46.07,1.31,1.31,0,0,0-.37.2l-.26-.46a1.69,1.69,0,0,1,.52-.26,2.75,2.75,0,0,1,.65-.08A1.33,1.33,0,0,1,118.57,204.67Zm-.59,1.94a.61.61,0,0,0,.26-.31V206h-.66c-.37,0-.56.12-.56.36a.34.34,0,0,0,.14.28.67.67,0,0,0,.39.1A.79.79,0,0,0,118,206.61Z" style="fill: rgb(255, 255, 255); transform-origin: 117.641px 205.801px;" id="elgzmfx27udp" class="animable"></path><path d="M121.36,207a.86.86,0,0,1-.27.14,1.27,1.27,0,0,1-.34,0,.94.94,0,0,1-.7-.24.86.86,0,0,1-.25-.68v-1.33h-.45v-.51h.45v-.63h.64v.63h.74v.51h-.74v1.31a.43.43,0,0,0,.1.31.36.36,0,0,0,.28.1.57.57,0,0,0,.36-.11Z" style="fill: rgb(255, 255, 255); transform-origin: 120.355px 205.451px;" id="el7l9uj0i9lel" class="animable"></path><path d="M121.92,203.84a.37.37,0,0,1-.11-.27.41.41,0,0,1,.11-.28.44.44,0,0,1,.3-.11.44.44,0,0,1,.29.11.34.34,0,0,1,.12.26.38.38,0,0,1-.12.29.36.36,0,0,1-.29.11A.4.4,0,0,1,121.92,203.84Zm0,.57h.65v2.75h-.65Z" style="fill: rgb(255, 255, 255); transform-origin: 122.22px 205.17px;" id="eli7ql2km3" class="animable"></path><path d="M123.86,207a1.39,1.39,0,0,1-.52-.5,1.47,1.47,0,0,1-.19-.73,1.43,1.43,0,0,1,.19-.72,1.32,1.32,0,0,1,.52-.5,1.61,1.61,0,0,1,.76-.18,1.54,1.54,0,0,1,.75.18,1.2,1.2,0,0,1,.52.5,1.34,1.34,0,0,1,.19.72,1.37,1.37,0,0,1-.19.73,1.26,1.26,0,0,1-.52.5,1.54,1.54,0,0,1-.75.18A1.61,1.61,0,0,1,123.86,207Zm1.34-.61a.81.81,0,0,0,.23-.62.82.82,0,0,0-.23-.62.83.83,0,0,0-1.17,0,.86.86,0,0,0-.23.62.85.85,0,0,0,.23.62.83.83,0,0,0,1.17,0Z" style="fill: rgb(255, 255, 255); transform-origin: 124.615px 205.775px;" id="elwe2cxo4z1sb" class="animable"></path><path d="M129.09,204.68a1.19,1.19,0,0,1,.32.9v1.58h-.65v-1.5a.73.73,0,0,0-.17-.54.62.62,0,0,0-.48-.18.75.75,0,0,0-.56.21.85.85,0,0,0-.21.62v1.39h-.64v-2.75h.61v.35a1.18,1.18,0,0,1,.4-.29,1.63,1.63,0,0,1,.55-.09A1.14,1.14,0,0,1,129.09,204.68Z" style="fill: rgb(255, 255, 255); transform-origin: 128.057px 205.769px;" id="el1s5tvd7o24d" class="animable"></path><path d="M163.21,268a1.35,1.35,0,0,1-.54-.52,1.44,1.44,0,0,1,.54-2,1.66,1.66,0,0,1,.77-.19,1.61,1.61,0,0,1,.63.12,1.42,1.42,0,0,1,.48.35l-.33.32a1,1,0,0,0-.76-.33,1,1,0,0,0-.51.13.81.81,0,0,0-.36.35,1.07,1.07,0,0,0,0,1,.81.81,0,0,0,.36.35,1,1,0,0,0,.51.13,1,1,0,0,0,.76-.33l.33.32a1.3,1.3,0,0,1-.48.35,1.61,1.61,0,0,1-.63.12A1.63,1.63,0,0,1,163.21,268Z" style="fill: rgb(255, 255, 255); transform-origin: 163.778px 266.73px;" id="eln48uku2my08" class="animable"></path><path d="M165.84,268a.94.94,0,0,1-.4-.39,1.05,1.05,0,0,1-.15-.57,1,1,0,0,1,.15-.56.94.94,0,0,1,.4-.39,1.17,1.17,0,0,1,.59-.14,1.15,1.15,0,0,1,.59.14,1,1,0,0,1,.41.39,1,1,0,0,1,.15.56,1.05,1.05,0,0,1-.15.57,1,1,0,0,1-.41.39,1.15,1.15,0,0,1-.59.14A1.17,1.17,0,0,1,165.84,268Zm1-.47a.67.67,0,0,0,.18-.49.65.65,0,0,0-.18-.48.59.59,0,0,0-.46-.19.6.6,0,0,0-.46.19.69.69,0,0,0-.17.48.71.71,0,0,0,.17.49.63.63,0,0,0,.46.18A.62.62,0,0,0,166.89,267.57Z" style="fill: rgb(255, 255, 255); transform-origin: 166.435px 267.045px;" id="elfmrcyi4dp6r" class="animable"></path><path d="M169.93,266.22a1,1,0,0,1,.24.71v1.23h-.5V267a.62.62,0,0,0-.13-.42.48.48,0,0,0-.38-.14.58.58,0,0,0-.44.16.65.65,0,0,0-.16.48v1.09h-.5V266h.48v.28a.72.72,0,0,1,.31-.23,1.12,1.12,0,0,1,.42-.07A1,1,0,0,1,169.93,266.22Z" style="fill: rgb(255, 255, 255); transform-origin: 169.116px 267.075px;" id="el4ecv8omiutv" class="animable"></path><path d="M172.1,268a.65.65,0,0,1-.22.11,1.09,1.09,0,0,1-.26,0,.78.78,0,0,1-.55-.18.7.7,0,0,1-.19-.54v-1h-.36V266h.36v-.49h.5V266H172v.4h-.57v1a.32.32,0,0,0,.08.24.29.29,0,0,0,.22.08.45.45,0,0,0,.28-.09Z" style="fill: rgb(255, 255, 255); transform-origin: 171.31px 266.814px;" id="el04frkp7a4fne" class="animable"></path><path d="M174.06,266.21a.92.92,0,0,1,.25.69v1.26h-.48v-.26a.61.61,0,0,1-.26.21,1,1,0,0,1-.41.07.93.93,0,0,1-.42-.08.58.58,0,0,1-.28-.23.52.52,0,0,1-.1-.33.56.56,0,0,1,.21-.46,1.06,1.06,0,0,1,.68-.18h.56v0a.43.43,0,0,0-.14-.34.58.58,0,0,0-.4-.12,1,1,0,0,0-.35,0,.86.86,0,0,0-.3.16l-.2-.37a1.29,1.29,0,0,1,.41-.19,1.63,1.63,0,0,1,.5-.07A1.06,1.06,0,0,1,174.06,266.21Zm-.46,1.52a.45.45,0,0,0,.21-.24v-.25h-.52c-.29,0-.44.09-.44.28a.27.27,0,0,0,.11.22.51.51,0,0,0,.3.08A.64.64,0,0,0,173.6,267.73Z" style="fill: rgb(255, 255, 255); transform-origin: 173.336px 267.075px;" id="elod6dod9rar" class="animable"></path><path d="M175.36,268a1,1,0,0,1-.42-.39,1.05,1.05,0,0,1-.15-.57,1,1,0,0,1,.15-.56,1,1,0,0,1,.41-.39,1.21,1.21,0,0,1,.6-.14,1.1,1.1,0,0,1,.56.13.76.76,0,0,1,.36.37l-.39.22a.54.54,0,0,0-.23-.22.61.61,0,0,0-.3-.08.63.63,0,0,0-.47.19.65.65,0,0,0-.18.48.66.66,0,0,0,.18.49.64.64,0,0,0,.47.18.6.6,0,0,0,.3-.07.54.54,0,0,0,.23-.22l.39.22a.81.81,0,0,1-.36.37,1.13,1.13,0,0,1-.56.13A1.15,1.15,0,0,1,175.36,268Z" style="fill: rgb(255, 255, 255); transform-origin: 175.83px 267.045px;" id="el97q4gl83l8m" class="animable"></path><path d="M178.62,268a.7.7,0,0,1-.21.11,1.24,1.24,0,0,1-.27,0,.78.78,0,0,1-.55-.18.7.7,0,0,1-.19-.54v-1h-.35V266h.35v-.49h.5V266h.58v.4h-.58v1a.36.36,0,0,0,.08.24.29.29,0,0,0,.22.08.43.43,0,0,0,.28-.09Z" style="fill: rgb(255, 255, 255); transform-origin: 177.835px 266.814px;" id="elcfvtfbox18u" class="animable"></path><path d="M180.19,265.34h.52v2.82h-.52Z" style="fill: rgb(255, 255, 255); transform-origin: 180.45px 266.75px;" id="eljdwd9211vsc" class="animable"></path><path d="M183.29,266.22a.93.93,0,0,1,.25.71v1.23H183V267a.57.57,0,0,0-.14-.42.45.45,0,0,0-.37-.14.58.58,0,0,0-.44.16.65.65,0,0,0-.16.48v1.09h-.5V266h.47v.28a.82.82,0,0,1,.32-.23,1.09,1.09,0,0,1,.42-.07A.92.92,0,0,1,183.29,266.22Z" style="fill: rgb(255, 255, 255); transform-origin: 182.466px 267.074px;" id="elufb1g5gj1" class="animable"></path><path d="M184.73,265.9V266h.59v.4h-.57v1.73h-.5v-1.73h-.36V266h.36v-.14a.69.69,0,0,1,.2-.54.73.73,0,0,1,.56-.2.84.84,0,0,1,.46.11l-.14.38a.49.49,0,0,0-.28-.09C184.84,265.55,184.73,265.67,184.73,265.9Z" style="fill: rgb(255, 255, 255); transform-origin: 184.68px 266.624px;" id="el3az0yl99m3p" class="animable"></path><path d="M186,268a.94.94,0,0,1-.4-.39,1.05,1.05,0,0,1-.15-.57,1,1,0,0,1,.15-.56.94.94,0,0,1,.4-.39,1.17,1.17,0,0,1,.59-.14,1.15,1.15,0,0,1,.59.14,1,1,0,0,1,.41.39,1,1,0,0,1,.15.56,1.05,1.05,0,0,1-.15.57,1,1,0,0,1-.41.39,1.15,1.15,0,0,1-.59.14A1.17,1.17,0,0,1,186,268Zm1.05-.47a.67.67,0,0,0,.18-.49.65.65,0,0,0-.18-.48.59.59,0,0,0-.46-.19.57.57,0,0,0-.45.19.65.65,0,0,0-.18.48.67.67,0,0,0,.18.49.6.6,0,0,0,.45.18A.62.62,0,0,0,187.05,267.57Z" style="fill: rgb(255, 255, 255); transform-origin: 186.595px 267.045px;" id="el49lwwbq1ea8" class="animable"></path><path d="M165,277.88v.43h-2.11V275.5H165v.44h-1.53v.73h1.36v.43h-1.36v.78Z" style="fill: rgb(255, 255, 255); transform-origin: 163.945px 276.905px;" id="elyff036g15ud" class="animable"></path><path d="M167.64,275.33v3h-.49V278a.86.86,0,0,1-.3.23,1.1,1.1,0,0,1-.41.07,1.12,1.12,0,0,1-.55-.13,1,1,0,0,1-.39-.39,1.11,1.11,0,0,1-.14-.58,1,1,0,0,1,.14-.57.92.92,0,0,1,.39-.39,1.12,1.12,0,0,1,.55-.14,1,1,0,0,1,.39.08.81.81,0,0,1,.3.21v-1.1Zm-.81,2.5a.66.66,0,0,0,.23-.24.75.75,0,0,0,.08-.35.78.78,0,0,0-.08-.35.76.76,0,0,0-.23-.24.73.73,0,0,0-.33-.08.6.6,0,0,0-.55.32.68.68,0,0,0-.09.35.65.65,0,0,0,.09.35.59.59,0,0,0,.23.24.66.66,0,0,0,.32.08A.73.73,0,0,0,166.83,277.83Z" style="fill: rgb(255, 255, 255); transform-origin: 166.499px 276.81px;" id="elvvirkjsazbl" class="animable"></path><path d="M170.37,276.17v2.14h-.48V278a.73.73,0,0,1-.3.22.85.85,0,0,1-.39.08.85.85,0,0,1-.92-.95v-1.22h.5v1.16a.61.61,0,0,0,.13.43.5.5,0,0,0,.37.14.58.58,0,0,0,.43-.17.65.65,0,0,0,.16-.48v-1.08Z" style="fill: rgb(255, 255, 255); transform-origin: 169.322px 277.22px;" id="els61htrnxj9h" class="animable"></path><path d="M171.42,278.2a1,1,0,0,1-.42-.39,1.16,1.16,0,0,1,0-1.14,1.07,1.07,0,0,1,.41-.38,1.27,1.27,0,0,1,1.16,0,.86.86,0,0,1,.36.37l-.39.23a.57.57,0,0,0-.23-.23.73.73,0,0,0-.3-.07.66.66,0,0,0-.47.18.69.69,0,0,0-.18.49.67.67,0,0,0,.18.49.64.64,0,0,0,.47.18.6.6,0,0,0,.3-.07.57.57,0,0,0,.23-.23l.39.23a.86.86,0,0,1-.36.37,1.13,1.13,0,0,1-.56.13A1.15,1.15,0,0,1,171.42,278.2Z" style="fill: rgb(255, 255, 255); transform-origin: 171.89px 277.255px;" id="elyef2lslf9ad" class="animable"></path><path d="M174.91,276.37a.87.87,0,0,1,.25.69v1.25h-.47v-.26a.59.59,0,0,1-.27.22,1,1,0,0,1-.41.07,1.08,1.08,0,0,1-.42-.08.71.71,0,0,1-.28-.23.56.56,0,0,1-.1-.33.54.54,0,0,1,.22-.46,1,1,0,0,1,.67-.18h.56v0a.45.45,0,0,0-.14-.35.58.58,0,0,0-.4-.12,1,1,0,0,0-.35.06.86.86,0,0,0-.3.16l-.19-.37a1.16,1.16,0,0,1,.4-.2,2.08,2.08,0,0,1,.5-.07A1.06,1.06,0,0,1,174.91,276.37Zm-.46,1.52a.47.47,0,0,0,.21-.25v-.25h-.52c-.29,0-.43.1-.43.29a.27.27,0,0,0,.1.22.56.56,0,0,0,.3.08A.64.64,0,0,0,174.45,277.89Z" style="fill: rgb(255, 255, 255); transform-origin: 174.186px 277.253px;" id="els37lwuunx7h" class="animable"></path><path d="M177.09,278.2a.7.7,0,0,1-.21.11l-.27,0a.78.78,0,0,1-.55-.18.73.73,0,0,1-.19-.54v-1h-.35v-.41h.35v-.49h.5v.49H177v.41h-.58v1a.36.36,0,0,0,.08.24.29.29,0,0,0,.22.08.43.43,0,0,0,.28-.09Z" style="fill: rgb(255, 255, 255); transform-origin: 176.305px 277.001px;" id="elgvdoofixu" class="animable"></path><path d="M177.53,275.73a.29.29,0,0,1-.09-.22.29.29,0,0,1,.09-.21.34.34,0,0,1,.46,0,.25.25,0,0,1,.09.2.29.29,0,0,1-.09.22.29.29,0,0,1-.23.1A.32.32,0,0,1,177.53,275.73Zm0,.44h.5v2.14h-.5Z" style="fill: rgb(255, 255, 255); transform-origin: 177.76px 276.76px;" id="eld3pcosvx83p" class="animable"></path><path d="M179,278.2a.94.94,0,0,1-.4-.39,1.16,1.16,0,0,1,0-1.14,1,1,0,0,1,.4-.38,1.18,1.18,0,0,1,.59-.15,1.15,1.15,0,0,1,.59.15,1.07,1.07,0,0,1,.41.38,1.23,1.23,0,0,1,0,1.14,1,1,0,0,1-.41.39,1.15,1.15,0,0,1-.59.14A1.17,1.17,0,0,1,179,278.2Zm1.05-.47a.69.69,0,0,0,.18-.49.65.65,0,0,0-.18-.48.65.65,0,0,0-.92,0,.69.69,0,0,0-.17.48.73.73,0,0,0,.17.49.68.68,0,0,0,.92,0Z" style="fill: rgb(255, 255, 255); transform-origin: 179.59px 277.24px;" id="elgmjarpnnm1k" class="animable"></path><path d="M183.12,276.38a.91.91,0,0,1,.25.7v1.23h-.5v-1.16a.62.62,0,0,0-.13-.42.49.49,0,0,0-.38-.15.59.59,0,0,0-.44.17.65.65,0,0,0-.16.48v1.08h-.5v-2.14h.47v.28a.82.82,0,0,1,.32-.23,1.12,1.12,0,0,1,.42-.08A.88.88,0,0,1,183.12,276.38Z" style="fill: rgb(255, 255, 255); transform-origin: 182.316px 277.224px;" id="ellby2ocvle3j" class="animable"></path><g id="elzwzat6hpg0s"><rect x="157.59" y="140.61" width="15.74" height="10.46" style="opacity: 0.3; transform-origin: 165.46px 145.84px;" class="animable" id="elrk4fzewmdw"></rect></g><path d="M165,143.89l-1.14,3.43h-.68l-.85-2.54-.86,2.54h-.69l-1.14-3.43h.67l.85,2.61.89-2.61h.59l.87,2.62.88-2.62Z" style="fill: rgb(255, 255, 255); transform-origin: 162.32px 145.605px;" id="elmzn3jo3s39" class="animable"></path><path d="M167.18,145a1.09,1.09,0,0,1,.31.84v1.53h-.58V147a.78.78,0,0,1-.33.26,1.21,1.21,0,0,1-.5.09,1.16,1.16,0,0,1-.51-.1.82.82,0,0,1-.35-.28.73.73,0,0,1-.12-.41.68.68,0,0,1,.27-.56,1.24,1.24,0,0,1,.82-.22h.68v0a.54.54,0,0,0-.16-.42.72.72,0,0,0-.49-.15,1.68,1.68,0,0,0-.44.07,1.23,1.23,0,0,0-.36.19l-.24-.44a1.37,1.37,0,0,1,.5-.24,2,2,0,0,1,.61-.09A1.32,1.32,0,0,1,167.18,145Zm-.56,1.86a.56.56,0,0,0,.25-.31v-.3h-.63c-.35,0-.53.12-.53.35a.29.29,0,0,0,.13.26.58.58,0,0,0,.37.1A.8.8,0,0,0,166.62,146.81Z" style="fill: rgb(255, 255, 255); transform-origin: 166.296px 146.035px;" id="el78xaosbge3k" class="animable"></path><path d="M168.27,143.68h.61v3.64h-.61Z" style="fill: rgb(255, 255, 255); transform-origin: 168.575px 145.5px;" id="elufkdh5o3qe7" class="animable"></path><path d="M169.69,143.68h.61v3.64h-.61Z" style="fill: rgb(255, 255, 255); transform-origin: 169.995px 145.5px;" id="elzz8li43gysc" class="animable"></path><path d="M107.36,114.11a1.71,1.71,0,0,1-.66-.34l.25-.56a1.77,1.77,0,0,0,.58.31,2.09,2.09,0,0,0,.69.12,1.23,1.23,0,0,0,.65-.14.41.41,0,0,0,.21-.36.36.36,0,0,0-.12-.28.87.87,0,0,0-.3-.17l-.5-.13a5.8,5.8,0,0,1-.71-.21A1.12,1.12,0,0,1,107,112a.85.85,0,0,1-.2-.61,1.06,1.06,0,0,1,.17-.58,1.13,1.13,0,0,1,.53-.42,2.16,2.16,0,0,1,.86-.16,2.74,2.74,0,0,1,.7.09,2.11,2.11,0,0,1,.59.26l-.23.56a2.24,2.24,0,0,0-.53-.23,2,2,0,0,0-.54-.08,1.08,1.08,0,0,0-.63.15.43.43,0,0,0-.21.38.34.34,0,0,0,.12.27.86.86,0,0,0,.3.16,4.12,4.12,0,0,0,.5.14,6.39,6.39,0,0,1,.71.21,1.18,1.18,0,0,1,.47.33.89.89,0,0,1,.2.6,1,1,0,0,1-.18.58,1.15,1.15,0,0,1-.52.41,2.08,2.08,0,0,1-.87.16A3.09,3.09,0,0,1,107.36,114.11Z" style="fill: rgb(255, 255, 255); transform-origin: 108.255px 112.225px;" id="ele6j8pr7rgo" class="animable"></path><path d="M113.2,112.93h-2.32a.79.79,0,0,0,.32.51,1,1,0,0,0,.64.19,1.06,1.06,0,0,0,.8-.32l.37.43a1.22,1.22,0,0,1-.5.36,1.85,1.85,0,0,1-.69.12A1.78,1.78,0,0,1,111,114a1.44,1.44,0,0,1-.58-.54,1.62,1.62,0,0,1,0-1.56,1.4,1.4,0,0,1,.54-.54,1.62,1.62,0,0,1,.79-.19,1.52,1.52,0,0,1,.77.19,1.29,1.29,0,0,1,.53.53,1.6,1.6,0,0,1,.19.8A1.79,1.79,0,0,1,113.2,112.93Zm-2-1a.81.81,0,0,0-.28.53h1.67a.8.8,0,0,0-.27-.52.79.79,0,0,0-.56-.2A.83.83,0,0,0,111.16,111.94Z" style="fill: rgb(255, 255, 255); transform-origin: 111.73px 112.695px;" id="elb9akzkwfyb7" class="animable"></path><path d="M115.92,111.51a1.21,1.21,0,0,1,.35.94v1.73h-.66v-.36a.77.77,0,0,1-.36.3,1.42,1.42,0,0,1-.57.1,1.5,1.5,0,0,1-.58-.11.92.92,0,0,1-.38-.32.82.82,0,0,1,.16-1.09,1.48,1.48,0,0,1,.93-.24h.76v0a.61.61,0,0,0-.18-.47.82.82,0,0,0-.55-.17,1.62,1.62,0,0,0-.49.08,1.22,1.22,0,0,0-.41.21l-.27-.5a1.62,1.62,0,0,1,.56-.27,2.61,2.61,0,0,1,.69-.09A1.43,1.43,0,0,1,115.92,111.51Zm-.63,2.09a.63.63,0,0,0,.28-.34v-.34h-.71q-.6,0-.6.39a.37.37,0,0,0,.15.3.72.72,0,0,0,.42.11A.9.9,0,0,0,115.29,113.6Z" style="fill: rgb(255, 255, 255); transform-origin: 114.927px 112.731px;" id="el3lvqabq44f7" class="animable"></path><path d="M118.86,111.2v.65h-.16a.85.85,0,0,0-.63.23,1,1,0,0,0-.23.68v1.43h-.69v-3h.66v.43A1.15,1.15,0,0,1,118.86,111.2Z" style="fill: rgb(255, 255, 255); transform-origin: 118.005px 112.69px;" id="eljbzv3w2wscn" class="animable"></path><path d="M120,114a1.47,1.47,0,0,1-.78-1.32,1.47,1.47,0,0,1,.78-1.32,1.68,1.68,0,0,1,.82-.19,1.59,1.59,0,0,1,.77.17,1.15,1.15,0,0,1,.49.51l-.53.31a.84.84,0,0,0-.31-.31,1,1,0,0,0-.42-.1.9.9,0,0,0-.64.25.93.93,0,0,0-.26.68.94.94,0,0,0,.25.67.88.88,0,0,0,.65.25,1,1,0,0,0,.42-.1.84.84,0,0,0,.31-.31l.53.31a1.17,1.17,0,0,1-.5.51,1.55,1.55,0,0,1-.76.18A1.71,1.71,0,0,1,120,114Z" style="fill: rgb(255, 255, 255); transform-origin: 120.65px 112.68px;" id="elhp2pez79k0a" class="animable"></path><path d="M125.18,111.52a1.31,1.31,0,0,1,.33,1v1.69h-.69v-1.6a.87.87,0,0,0-.18-.59.68.68,0,0,0-.52-.19.76.76,0,0,0-.6.23.89.89,0,0,0-.22.66v1.49h-.7v-4.1h.7v1.49a1.15,1.15,0,0,1,.42-.28,1.64,1.64,0,0,1,.56-.09A1.24,1.24,0,0,1,125.18,111.52Z" style="fill: rgb(255, 255, 255); transform-origin: 124.058px 112.16px;" id="el4ggyjrbaspz" class="animable"></path><path d="M160.22,128.62v1.49h2.37v.77h-2.37v1.87h-.91v-4.89h3.58v.76Z" style="fill: rgb(255, 255, 255); transform-origin: 161.1px 130.305px;" id="elxkgcxx1o5vq" class="animable"></path><path d="M165.78,129v.83l-.2,0a1,1,0,0,0-.8.3,1.17,1.17,0,0,0-.29.85v1.81h-.87V129h.83v.54A1.45,1.45,0,0,1,165.78,129Z" style="fill: rgb(255, 255, 255); transform-origin: 164.7px 130.889px;" id="eltjnoemc7dkq" class="animable"></path><path d="M166.56,128.25a.47.47,0,0,1-.16-.37.49.49,0,0,1,.16-.38.61.61,0,0,1,.8,0,.44.44,0,0,1,.16.36.53.53,0,0,1-.16.39.55.55,0,0,1-.4.15A.57.57,0,0,1,166.56,128.25Zm0,.77h.87v3.73h-.87Z" style="fill: rgb(255, 255, 255); transform-origin: 166.96px 130.05px;" id="el77wpq839zi" class="animable"></path><path d="M172,131.17h-2.93a1,1,0,0,0,.4.65,1.48,1.48,0,0,0,1.82-.16l.47.53a1.49,1.49,0,0,1-.64.46,2.31,2.31,0,0,1-.86.15,2.39,2.39,0,0,1-1.09-.24,1.75,1.75,0,0,1-.72-.68,1.92,1.92,0,0,1-.26-1,2,2,0,0,1,.25-1,1.88,1.88,0,0,1,.69-.68,2,2,0,0,1,1-.24,2,2,0,0,1,1,.24,1.69,1.69,0,0,1,.67.68,2.07,2.07,0,0,1,.24,1C172.05,131,172.05,131.05,172,131.17Zm-2.59-1.25a1.07,1.07,0,0,0-.35.67h2.12a1.06,1.06,0,0,0-.34-.66,1,1,0,0,0-.72-.25A1.09,1.09,0,0,0,169.45,129.92Z" style="fill: rgb(255, 255, 255); transform-origin: 170.117px 130.88px;" id="elsl2a8sdivho" class="animable"></path><path d="M176.15,129.39a1.63,1.63,0,0,1,.42,1.22v2.14h-.87v-2a1.06,1.06,0,0,0-.23-.74.86.86,0,0,0-.66-.25,1,1,0,0,0-.76.29,1.14,1.14,0,0,0-.28.84v1.88h-.88V129h.83v.48a1.45,1.45,0,0,1,.55-.39A2,2,0,0,1,175,129,1.57,1.57,0,0,1,176.15,129.39Z" style="fill: rgb(255, 255, 255); transform-origin: 174.732px 130.883px;" id="elb4v0akfzk1h" class="animable"></path><path d="M181.38,127.56v5.19h-.84v-.48a1.41,1.41,0,0,1-.54.4,1.75,1.75,0,0,1-.7.13,2.07,2.07,0,0,1-1-.23,1.69,1.69,0,0,1-.67-.68,2,2,0,0,1-.25-1,1.93,1.93,0,0,1,.25-1,1.6,1.6,0,0,1,.67-.67,2,2,0,0,1,1-.24,1.87,1.87,0,0,1,.68.12,1.4,1.4,0,0,1,.52.38v-1.92ZM180,131.91a1,1,0,0,0,.4-.41,1.2,1.2,0,0,0,.15-.61,1.24,1.24,0,0,0-.15-.62,1.05,1.05,0,0,0-.4-.41,1.2,1.2,0,0,0-.57-.14,1.16,1.16,0,0,0-.56.14,1.05,1.05,0,0,0-.4.41,1.24,1.24,0,0,0-.15.62,1.2,1.2,0,0,0,.15.61,1,1,0,0,0,.4.41,1.06,1.06,0,0,0,.56.14A1.1,1.1,0,0,0,180,131.91Z" style="fill: rgb(255, 255, 255); transform-origin: 179.38px 130.18px;" id="el4sc51g3gisw" class="animable"></path><path d="M182.79,132.68a1.84,1.84,0,0,1-.69-.3l.33-.66a2.29,2.29,0,0,0,.61.27,2.4,2.4,0,0,0,.69.1c.53,0,.79-.14.79-.41a.3.3,0,0,0-.2-.28,3.16,3.16,0,0,0-.64-.14,5.57,5.57,0,0,1-.75-.16,1.19,1.19,0,0,1-.51-.32.89.89,0,0,1-.21-.63,1,1,0,0,1,.44-.85,2,2,0,0,1,1.2-.32,3.94,3.94,0,0,1,.77.08,2.07,2.07,0,0,1,.63.24l-.33.66a2.16,2.16,0,0,0-1.07-.28,1.18,1.18,0,0,0-.59.12.35.35,0,0,0-.2.3.31.31,0,0,0,.22.3,3.77,3.77,0,0,0,.66.17,4.28,4.28,0,0,1,.73.16,1.22,1.22,0,0,1,.5.3.91.91,0,0,1,.2.62,1,1,0,0,1-.45.84,2.17,2.17,0,0,1-1.24.31A3.35,3.35,0,0,1,182.79,132.68Z" style="fill: rgb(255, 255, 255); transform-origin: 183.736px 130.89px;" id="el5cr8m75h0z" class="animable"></path></g><g id="freepik--Character--inject-2" class="animable" style="transform-origin: 231.229px 328.812px;"><path d="M307.08,276.51c13.95,1.9,21.42,20.71,26.1,46.88s1.8,47.29,1.8,61.24-10.8,24.31-10.8,24.31c-51.75,13.21-128,8.75-144.75,1.82s-24.91-23.92-24.91-23.92,11.66-30.36,24.06-37.28,59.48-14.36,59.48-14.36c4-15.53,24.05-35.61,50.57-48.51A16.87,16.87,0,0,1,307.08,276.51Z" style="fill: #457CEE; transform-origin: 245.188px 346.85px;" id="elwl21v9pe0b" class="animable"></path><g id="el4vp3ectr8tn"><path d="M307.08,276.51c13.95,1.9,21.42,20.71,26.1,46.88s1.8,47.29,1.8,61.24-10.8,24.31-10.8,24.31c-51.75,13.21-128,8.75-144.75,1.82s-24.91-23.92-24.91-23.92,11.66-30.36,24.06-37.28,59.48-14.36,59.48-14.36c4-15.53,24.05-35.61,50.57-48.51A16.87,16.87,0,0,1,307.08,276.51Z" style="fill: rgb(255, 255, 255); opacity: 0.1; transform-origin: 245.188px 346.85px;" class="animable" id="elsf2agnbw2q"></path></g><g id="elnspe5l0xts"><path d="M180.11,372.15l65.94-10.27h0c7.22-2.61,14.71-5.24,22-7.85l22.77-56.85c.35,2.81,5.8,2.89,8,2.2-3.58,11.95-12.38,25.59-12.71,36,1.16-2.77,6.13-6.82,9.08-7.12-7,5.28-11.72,24.24-17,39.81,1.45-1.13,3.74-1.48,6.82-1.11-4.94-.09-13.16,5.28-20.25,9.25-8.52.48-15.8-.36-19.52,2.15l-2.46-2.15a160.32,160.32,0,0,0-34.27,2.15,64.77,64.77,0,0,1,6.89-4c-10.93-.56-20.49,0-28.35,1.81-20.47,13.41-22.65,16.63-25.95,20.47l-5.23-7Z" style="opacity: 0.2; transform-origin: 227.345px 346.91px;" class="animable" id="elxkub6g901l"></path></g><path d="M186.56,330c3.75-1.66,20.4-.22,31.17,2,1.46.29,2.89.58,4.26.87l.95.21c4.09.87,7.65,1.7,10,2.34l4.76,1.28,2.11-3.63,3.89-6.71,33,2.53s9,45.59-18.63,45.59c-.8,0-1.61,0-2.45-.1-6.15-.46-13.14-2.59-20.23-5.46-6-2.42-12.11-5.38-17.84-8.31l-1.09-.55-3.19-1.64c-11.36-5.9-20.7-11-24.18-10.38-1.11,8.14-20.85,23.47-36,37l-6.94-2.84S182.81,331.7,186.56,330Z" style="fill: rgb(228, 137, 123); transform-origin: 212.125px 355.7px;" id="el3gkaskcpjo7" class="animable"></path><path d="M222.31,331.24l-6.41,31.18s22,17.61,41,10.74,13-38.59,13-38.59l-25-7.53-6.84,8Z" style="fill: #457CEE; transform-origin: 243.35px 350.895px;" id="el6cj5rvjoz48" class="animable"></path><g id="elis6gbt6mkc7"><path d="M215.9,362.42a8.15,8.15,0,0,1,1.06.68,89.55,89.55,0,0,0,13.42,7.51h0c7.37,2.95,16.59,5.5,25.27,2.84.42-.13.83-.2,1.24-.35,19-6.86,13-38.56,13-38.56l-25-7.52L239.85,333l-1.79,2.1-14.83-3.59-.93-.22-.31,1.52-2.8,13.64-2.69,13.08Z" style="fill: rgb(255, 255, 255); opacity: 0.6; isolation: isolate; transform-origin: 243.345px 350.794px;" class="animable" id="elqmizfcu1rtk"></path></g><polygon points="223.4 330.64 216.73 364.39 212.73 361.28 218.06 329.99 223.4 330.64" style="fill: #457CEE; transform-origin: 218.065px 347.19px;" id="elcifksq8p2ba" class="animable"></polygon><g id="el9yutve7xpak"><polygon points="212.73 361.28 216.73 364.39 216.96 363.22 217.59 360.04 220.3 346.31 222.94 332.98 223.23 331.47 223.4 330.64 218.06 329.99 217.73 331.91 215.23 346.6 213.31 357.88 212.73 361.28" style="fill: rgb(255, 255, 255); opacity: 0.4; isolation: isolate; transform-origin: 218.065px 347.19px;" class="animable" id="el1c5n28v1oi2"></polygon></g><g id="el865mlrt2r0o"><path d="M188.8,347.82c.1.17.21.24.33.22,3.48-.63,12.82,4.48,24.18,10.38l-.58,3.46,4,3.16.23-1.31a89.64,89.64,0,0,0,13.42,7.64h0l5-2.57,7.3-3.82-3-27.28-4.33,6s-10.1,2.45-15.1,2.93l-1.11.11c-1.37.11-2.71.19-4,.2-.88,0-1.71,0-2.5-.07C204.13,346.27,194.83,346,188.8,347.82Z" style="opacity: 0.2; isolation: isolate; transform-origin: 215.74px 354.535px;" class="animable" id="elrv93z1f4oe8"></path></g><path d="M187.62,354.54c6.37-5.56,56.15-7.67,56.15-7.67l15.13,26.5-63.08-6.45c-2.55,7.82-33.87,22.23-49.06,30.5l-5.35-2.76S183,358.59,187.62,354.54Z" style="fill: rgb(228, 137, 123); transform-origin: 200.155px 372.145px;" id="elvjogks73s6l" class="animable"></path><path d="M225.11,347.37l6.16,27.49,15.3-.58s38,18.05,31-41.92l-30.3-8.23-9.83,20.21Z" style="fill: #457CEE; transform-origin: 251.77px 350.479px;" id="el5tb0ql90k6k" class="animable"></path><g id="elxl3wti6xgo"><path d="M225.11,347.37l6.16,27.49,15.3-.58s38,18.05,31-41.92l-30.3-8.23-9.83,20.21Z" style="fill: rgb(255, 255, 255); opacity: 0.6; isolation: isolate; transform-origin: 251.77px 350.479px;" class="animable" id="eltegum7fcjfj"></path></g><polygon points="226.86 346 233.91 375.44 228.75 375.14 222.7 347.23 226.86 346" style="fill: #457CEE; transform-origin: 228.305px 360.72px;" id="elw1dp5o2i4z" class="animable"></polygon><g id="el1bf84f7y5vvi"><polygon points="226.86 346 233.91 375.44 228.75 375.14 222.7 347.23 226.86 346" style="fill: rgb(255, 255, 255); opacity: 0.4; isolation: isolate; transform-origin: 228.305px 360.72px;" class="animable" id="eluo429uavhxg"></polygon></g><path d="M151.37,395.93c.24-.71-8.54-3.37-8.54-3.37S135.54,396,130,395.24s-3.87,3.44,1.86,5.58L146,406.13C150.07,407.65,148.83,403.23,151.37,395.93Z" style="fill: rgb(38, 50, 56); transform-origin: 138.988px 399.494px;" id="elkhs1q8olbd9" class="animable"></path><g id="elf7hggr99c3l"><path d="M183.78,355.72l6.68-2.65c-.47,7.45-21.16,21.32-36.09,32.35l1,1.31s-5.75,9.51-7.58,9.9-4.59-3.79-4.59-3.79Z" style="opacity: 0.2; transform-origin: 166.83px 374.863px;" class="animable" id="elzoafh45zz4j"></path></g><path d="M189.13,348l-11.4-8-31.56,42.17,5.2,3.84C167.66,373.42,190.16,358.38,189.13,348Z" style="fill: rgb(228, 137, 123); transform-origin: 167.667px 363.005px;" id="elnvcc6w2imrk" class="animable"></path><path d="M133.66,384.11l5.42,4.54c2.26,1.88,4.27,3.57,6.19,5.18,3.34,2.79,3.62-1.8,8.45-7.85.12-.14-.29-.61-.95-1.23-1.4-1.32-4-3.3-5.27-4.24l-.71-.53a37.52,37.52,0,0,1-3.86.1,22.69,22.69,0,0,1-9.17-1.86C128.73,375.7,129,380.18,133.66,384.11Z" style="fill: rgb(38, 50, 56); transform-origin: 141.908px 386.077px;" id="eldc93pxuufd4" class="animable"></path><path d="M196.53,327.53c1.2-1.18,7.06-4.33,8.06-5.24.22-.2,28-9,31.83-9l2.63-15.81,8.26,1.56s-3.49,20.46-5.81,22.37-32.61,5-32.61,5-2.77,3.27-4.3,3.71S195.34,328.7,196.53,327.53Z" style="fill: rgb(228, 137, 123); transform-origin: 221.858px 313.833px;" id="el1x29jp3y2gs" class="animable"></path><g id="el02khtkbe4yo8"><polygon points="238.53 300.64 246.62 302.85 247.03 300.64 238.8 298.97 238.53 300.64" style="opacity: 0.2; transform-origin: 242.78px 300.91px;" class="animable" id="el9j99mleospm"></polygon></g><path d="M237.79,299.42l9.52,2.46a107.65,107.65,0,0,0-1.79-22.25C241.23,280.8,239.39,289.74,237.79,299.42Z" style="fill: #457CEE; transform-origin: 242.565px 290.755px;" id="el8j8ry1mn8br" class="animable"></path><g id="elropfwpxkuca"><path d="M237.79,299.42l9.52,2.46a107.65,107.65,0,0,0-1.79-22.25C241.23,280.8,239.39,289.74,237.79,299.42Z" style="opacity: 0.2; transform-origin: 242.565px 290.755px;" class="animable" id="eljq3c79ns2u"></path></g><path d="M260,241.08l-10.18,4-3,17c4,22.36,7.94,44.11,12.26,47.43,3.46,4,11.21,13.59,27.77,16.1-3-6.21,2.14-20.83,2.14-31.6s-12-15.31-10.92-24C282.46,235.29,260,241.08,260,241.08Z" style="fill: rgb(38, 50, 56); transform-origin: 267.905px 283.164px;" id="elssusubp97af" class="animable"></path><path d="M249.85,245.1a10,10,0,0,0-4.23,8.56c.21,5.76.43,11.29.6,14.83.81,16.82,23.12,7.5,26.72,4.51s-3.93-27.14-8.09-28.56S249.85,245.1,249.85,245.1Z" style="fill: rgb(38, 50, 56); transform-origin: 259.75px 261.11px;" id="elws72avlaw9" class="animable"></path><path d="M244.13,322.9l-4.56,10.33h0c16.77.67,38.78,7.11,38.78,7.11s-.12-5.9-.41-9.67c-.81-10.35-1.88-28,2.78-42.05.3-.92.62-1.88,1-2.86a2.51,2.51,0,0,0-1.7-3.22,84.55,84.55,0,0,0-9.43-2.13,92.62,92.62,0,0,0-13-1.37c-5.61,0-12.06.59-12.06.59s-.08.37-1.5,6.17C240.88,299.74,241.32,302.57,244.13,322.9Z" style="fill: #457CEE; transform-origin: 260.711px 309.69px;" id="el6zntodhtk95" class="animable"></path><path d="M269.08,280.36s-2.14,3-9.25,3.95c0,0-3.53-2.32-2-5.13,0,0,1.54-.48,1.87-2.93a11.81,11.81,0,0,0-.66-5.1c-.08-.26-.17-.54-.27-.82l9-5.63S264.57,276.1,269.08,280.36Z" style="fill: rgb(228, 137, 123); transform-origin: 263.263px 274.505px;" id="el1iaeipuvsg7j" class="animable"></path><g id="eluvbi0tc31am"><path d="M265.71,268s-.48,6.42-6,8.28a11.81,11.81,0,0,0-.66-5.1C262.29,269.42,265.71,268,265.71,268Z" style="opacity: 0.2; isolation: isolate; transform-origin: 262.38px 272.14px;" class="animable" id="eli0rodwatcro"></path></g><path d="M256.66,246.27c-7.35,1.26-9,5.6-8.29,13.26.94,9.58,4.19,15.94,13,12.35C273.41,267,268.86,244.19,256.66,246.27Z" style="fill: rgb(228, 137, 123); transform-origin: 258.324px 259.516px;" id="elm61nsbdg0lo" class="animable"></path><path d="M253.05,258.31a15.69,15.69,0,0,1-1.62,3.41,2.05,2.05,0,0,0,2.08.5Z" style="fill: rgb(222, 87, 83); transform-origin: 252.47px 260.315px;" id="elgftqq8i87o" class="animable"></path><path d="M257.45,256.94c.08.61.48,1.05.89,1s.66-.6.57-1.2-.49-1.05-.89-1S257.36,256.33,257.45,256.94Z" style="fill: rgb(38, 50, 56); transform-origin: 258.18px 256.84px;" id="el3k9noihmkxu" class="animable"></path><path d="M258.19,255.74l-1.39-.32S257.61,256.43,258.19,255.74Z" style="fill: rgb(38, 50, 56); transform-origin: 257.495px 255.701px;" id="el3ufi9tcfypm" class="animable"></path><path d="M249.89,257.92c.09.6.49,1.05.9,1s.66-.6.57-1.21-.49-1-.9-1S249.81,257.31,249.89,257.92Z" style="fill: rgb(38, 50, 56); transform-origin: 250.627px 257.817px;" id="el0p6knm195yr" class="animable"></path><path d="M250.64,256.72l-1.4-.32S250.06,257.41,250.64,256.72Z" style="fill: rgb(38, 50, 56); transform-origin: 249.94px 256.681px;" id="el2g6sx46lsh1" class="animable"></path><path d="M260,252.74a.32.32,0,0,0,.24-.11.33.33,0,0,0,0-.45,4.15,4.15,0,0,0-3.68-.63.32.32,0,0,0-.21.4.33.33,0,0,0,.4.21,3.53,3.53,0,0,1,3.07.5A.34.34,0,0,0,260,252.74Z" style="fill: rgb(38, 50, 56); transform-origin: 258.332px 252.054px;" id="elw0lrzk3iuz" class="animable"></path><path d="M248.43,253.88a.31.31,0,0,0,.22-.09,3.13,3.13,0,0,1,2.55-1,.32.32,0,0,0,.12-.63,3.77,3.77,0,0,0-3.1,1.19.32.32,0,0,0,0,.45A.37.37,0,0,0,248.43,253.88Z" style="fill: rgb(38, 50, 56); transform-origin: 249.853px 253.012px;" id="elxfxy9fp3hsb" class="animable"></path><path d="M266.8,257.29s-4.46-5.45-4.74-10.2c0,0-15.57-3.47-13.77,11.44,0,0-3.66-12.88,8.92-15.33S269.57,260.7,266.8,257.29Z" style="fill: rgb(38, 50, 56); transform-origin: 258.068px 250.76px;" id="elfl7eelo7ikv" class="animable"></path><path d="M265.87,259a3.25,3.25,0,0,1,3-3.53c2.32-.14,4.21,4.34-1.26,6.44C266.78,262.25,266.19,261.53,265.87,259Z" style="fill: rgb(228, 137, 123); transform-origin: 268.512px 258.728px;" id="eli8zsckg7uld" class="animable"></path><path d="M259.15,263.14s-.27,2-4.35,2.19" style="fill: none; stroke: rgb(38, 50, 56); stroke-linecap: round; stroke-linejoin: round; stroke-width: 0.5px; transform-origin: 256.975px 264.235px;" id="elp1mhei3ybtk" class="animable"></path><path d="M263.61,245.43a22.25,22.25,0,0,1-6.64,4.86A74.48,74.48,0,0,1,246.89,253c1.37,6.73,1.82,14.05-4.42,16.46,1.83-5.62-.3-11.46,1-16.72,2.8-11.44,12.46-14.12,17.07-11.77C261.74,241.59,263.61,245.43,263.61,245.43Z" style="fill: rgb(38, 50, 56); transform-origin: 253.04px 254.824px;" id="eleew7clcpyrs" class="animable"></path><path d="M267.34,247.06v8.64a10.09,10.09,0,0,1-.88,7.9c.24-1.69-.12-5.41-.75-10l-2.89-5.7Z" style="fill: rgb(38, 50, 56); transform-origin: 265.296px 255.33px;" id="el8qnvc23jzpd" class="animable"></path><path d="M219.63,328c1.2-1.18,6.68-4.21,8.06-5.24.75-.56,42.17-5,43.44-3.52l2.31-16.37,9,1.67s-1.2,22.38-4.49,24.64-46-2.26-46-2.26-2.77,3.27-4.3,3.71S218.44,329.15,219.63,328Z" style="fill: rgb(228, 137, 123); transform-origin: 250.973px 316.782px;" id="elyun8orybq3p" class="animable"></path><g id="elcakygim8oeh"><polygon points="282.22 308.1 272.98 306.11 273.44 302.85 282.46 304.52 282.22 308.1" style="opacity: 0.2; transform-origin: 277.72px 305.475px;" class="animable" id="ellmzaz3tj44r"></polygon></g><path d="M285.23,307.22l-12.81-2.35c1.47-11.48,3.61-20.39,7.57-22.33,2.83,1.39,4.12,6.32,4.94,12.34A110.34,110.34,0,0,1,285.23,307.22Z" style="fill: #457CEE; transform-origin: 278.853px 294.88px;" id="elb5v5t081ia" class="animable"></path><g id="el5lmodlyvi8b"><path d="M285.23,307.22l-12.81-2.35c1.47-11.48,3.61-20.39,7.57-22.33,2.83,1.39,4.12,6.32,4.94,12.34A110.34,110.34,0,0,1,285.23,307.22Z" style="opacity: 0.2; transform-origin: 278.853px 294.88px;" class="animable" id="elrnim5ci5jh"></path></g><path d="M183.61,329.82l-.11,2.65c0,.68.77,1,1.44,1l52.91,2.14c.68,0,1.51-.22,1.54-.9l.11-2.65Z" style="fill: rgb(38, 50, 56); transform-origin: 211.5px 332.715px;" id="el9ex88veabie" class="animable"></path><g id="elq9t3af7joxl"><path d="M183.61,329.82l-.11,2.65c0,.68.77,1,1.44,1l52.91,2.14c.68,0,1.51-.22,1.54-.9l.11-2.65Z" style="fill: rgb(255, 255, 255); opacity: 0.4; isolation: isolate; transform-origin: 211.5px 332.715px;" class="animable" id="el7zcbamyvh6x"></path></g><g id="elmafltiqj53"><path d="M183.61,329.82l-.11,2.65c0,.68.77,1,1.44,1l34.9,1.41c.68,0,1.5-.22,1.52-.9l.11-2.65Z" style="opacity: 0.2; isolation: isolate; transform-origin: 202.485px 332.35px;" class="animable" id="elcgv2uf3wnn5"></path></g><path d="M175.87,302,181,330.8a2.16,2.16,0,0,0,2,1.71l34.41,1.39a1.4,1.4,0,0,0,1.37-1.75l-5.15-28.61a2,2,0,0,0-2-1.48l-34.42-1.39C176.3,300.64,175.7,301,175.87,302Z" style="fill: rgb(38, 50, 56); transform-origin: 197.333px 317.284px;" id="el4dp9ri0x027" class="animable"></path><g id="elst988wosewk"><path d="M175.87,302,181,330.8a2.16,2.16,0,0,0,2,1.71l33.24,1.34a1.39,1.39,0,0,0,1.38-1.74l-5.16-28.61a1.94,1.94,0,0,0-2-1.48l-33.25-1.35C176.3,300.64,175.7,301,175.87,302Z" style="fill: rgb(255, 255, 255); opacity: 0.4; isolation: isolate; transform-origin: 196.753px 317.259px;" class="animable" id="ely8yvzc1nrb"></path></g><g id="el0brird8gpr9e"><path d="M192.25,317.18h0c-.1,2.45,2.44,4.54,4.36,4.62s3.15-1.87,2.7-4.34-2.29-4.45-4.17-4.6c.45,2.47-.8,4.4-2.72,4.33Z" style="opacity: 0.2; isolation: isolate; transform-origin: 195.825px 317.331px;" class="animable" id="elmj68x9mscbb"></path></g></g><defs>     <filter id="active" height="200%">         <feMorphology in="SourceAlpha" result="DILATED" operator="dilate" radius="2"></feMorphology>                <feFlood flood-color="#32DFEC" flood-opacity="1" result="PINK"></feFlood>        <feComposite in="PINK" in2="DILATED" operator="in" result="OUTLINE"></feComposite>        <feMerge>            <feMergeNode in="OUTLINE"></feMergeNode>            <feMergeNode in="SourceGraphic"></feMergeNode>        </feMerge>    </filter>    <filter id="hover" height="200%">        <feMorphology in="SourceAlpha" result="DILATED" operator="dilate" radius="2"></feMorphology>                <feFlood flood-color="#ff0000" flood-opacity="0.5" result="PINK"></feFlood>        <feComposite in="PINK" in2="DILATED" operator="in" result="OUTLINE"></feComposite>        <feMerge>            <feMergeNode in="OUTLINE"></feMergeNode>            <feMergeNode in="SourceGraphic"></feMergeNode>        </feMerge>            <feColorMatrix type="matrix" values="0   0   0   0   0                0   1   0   0   0                0   0   0   0   0                0   0   0   1   0 "></feColorMatrix>    </filter></defs></svg>